<svg width="150" height="150" viewBox="0 0 150 150" fill="none" xmlns="http://www.w3.org/2000/svg">
<g filter="url(#filter0_bii_7512_442)">
<circle cx="74.6775" cy="74.6775" r="74.6775" fill="#0F244D" fill-opacity="0.4"/>
</g>
<path fill-rule="evenodd" clip-rule="evenodd" d="M93.4022 69.9104H114.841V76.4696L107.786 78.1125C107.614 78.152 107.455 78.2363 107.326 78.3569C107.197 78.4776 107.102 78.6302 107.051 78.7993C106.417 80.8658 105.587 82.8669 104.572 84.7751C104.489 84.931 104.449 85.1058 104.455 85.2822C104.46 85.4586 104.513 85.6303 104.606 85.7803L108.441 91.9345L97.7378 102.637L91.5836 98.8023C91.4336 98.7092 91.2619 98.6572 91.0855 98.6512C90.9092 98.6453 90.7343 98.6857 90.5784 98.7684C88.6707 99.7845 86.6695 100.615 84.6026 101.247C84.4337 101.299 84.2813 101.394 84.1608 101.523C84.0402 101.652 83.9558 101.811 83.9158 101.983L82.2747 109.038H67.1389L65.4969 101.983C65.4571 101.811 65.3727 101.652 65.2521 101.523C65.1316 101.394 64.9791 101.299 64.8101 101.247C62.7434 100.614 60.7422 99.7841 58.8343 98.7684C58.6782 98.6856 58.5032 98.6452 58.3267 98.6511C58.1502 98.6571 57.9783 98.7092 57.8282 98.8023L51.674 102.637L40.971 91.9345L44.8062 85.7803C44.8997 85.6305 44.952 85.4587 44.9579 85.2822C44.9639 85.1058 44.9233 84.9309 44.8401 84.7751C43.8242 82.8673 42.9941 80.8661 42.3615 78.7993C42.3101 78.6303 42.2151 78.4779 42.0861 78.3573C41.9571 78.2368 41.7986 78.1523 41.6266 78.1125L34.5688 76.4696V69.9104H56.0078C56.2639 74.6963 58.3455 79.2017 61.8238 82.4988C65.3021 85.796 69.9123 87.6338 74.705 87.6338C79.4977 87.6338 84.1079 85.796 87.5862 82.4988C91.0645 79.2017 93.1461 74.6963 93.4022 69.9104ZM51.5777 67.8956V55.9582C51.5781 55.7799 51.5313 55.6047 51.442 55.4504C51.3527 55.296 51.2241 55.1681 51.0693 55.0797L44.9668 51.644C45.1941 50.788 45.1043 49.8787 44.714 49.0836C44.3237 48.2886 43.6592 47.6614 42.843 47.3176C42.0267 46.9738 41.1137 46.9367 40.2722 47.213C39.4307 47.4893 38.7175 48.0604 38.2639 48.8211C37.8103 49.5818 37.6469 50.4808 37.8039 51.3525C37.9608 52.2242 38.4275 53.0097 39.118 53.5644C39.8085 54.1191 40.6762 54.4056 41.5612 54.371C42.4462 54.3363 43.2889 53.983 43.934 53.3761L49.5619 56.5451V67.8956H51.5777ZM104.33 50.7227C104.33 51.0335 104.37 51.3431 104.448 51.644L98.3461 55.0797C98.1904 55.1675 98.0609 55.2951 97.971 55.4495C97.881 55.6039 97.8338 55.7795 97.8341 55.9582V67.8956H99.8481V56.5433L105.476 53.3761C106.088 53.9543 106.88 54.3037 107.72 54.3653C108.559 54.4269 109.395 54.197 110.084 53.7144C110.774 53.2318 111.276 52.526 111.506 51.7162C111.735 50.9063 111.679 50.042 111.345 49.2692C111.012 48.4963 110.422 47.8622 109.675 47.4738C108.928 47.0855 108.07 46.9667 107.246 47.1375C106.421 47.3083 105.681 47.7582 105.15 48.4114C104.619 49.0645 104.33 49.8809 104.331 50.7227H104.33ZM57.3261 54.3795C58.2618 54.3805 59.162 54.0208 59.8395 53.3752L65.4675 56.5442V82.8191C66.1112 83.2478 66.7838 83.6313 67.4805 83.967V55.9609C67.4805 55.7822 67.433 55.6066 67.3429 55.4522C67.2528 55.2979 67.1233 55.1702 66.9677 55.0824L60.8652 51.6467C61.0572 50.9084 61.0135 50.1286 60.7402 49.4163C60.467 48.7041 59.9778 48.0952 59.3413 47.6748C58.7047 47.2544 57.9526 47.0436 57.1903 47.0719C56.428 47.1002 55.6936 47.3663 55.09 47.8327C54.4863 48.2992 54.0437 48.9428 53.8241 49.6733C53.6044 50.4038 53.6187 51.1848 53.865 51.9068C54.1113 52.6288 54.5772 53.2557 55.1975 53.6998C55.8178 54.1438 56.5614 54.3827 57.3243 54.3831L57.3261 54.3795ZM71.0482 44.6309C71.0494 45.4251 71.3087 46.1973 71.7869 46.8313C72.2652 47.4653 72.9365 47.9267 73.6998 48.1459V85.5832C74.3705 85.6233 75.0431 85.6233 75.7138 85.5832V48.1459C76.3672 47.9584 76.9554 47.5925 77.4124 47.0892C77.8693 46.5859 78.177 45.9652 78.3007 45.2968C78.4245 44.6284 78.3595 43.9387 78.113 43.3051C77.8666 42.6716 77.4484 42.1193 76.9055 41.7103C76.3625 41.3012 75.7163 41.0516 75.0394 40.9894C74.3624 40.9273 73.6815 41.0551 73.0732 41.3584C72.4648 41.6617 71.9531 42.1287 71.5954 42.7067C71.2377 43.2848 71.0482 43.9511 71.0482 44.6309ZM92.0884 47.0632C91.1191 47.065 90.1901 47.4509 89.5047 48.1363C88.8193 48.8217 88.4335 49.7507 88.4316 50.72C88.4317 51.031 88.4718 51.3406 88.5511 51.6414L82.4477 55.077C82.292 55.1648 82.1626 55.2924 82.0726 55.4468C81.9826 55.6012 81.9354 55.7768 81.9358 55.9555V83.9617C82.6327 83.6258 83.3056 83.2423 83.9497 82.8138V56.5433L89.5768 53.3743C90.0105 53.7847 90.538 54.0827 91.1134 54.2422C91.6888 54.4017 92.2945 54.4179 92.8775 54.2893C93.4606 54.1608 94.0033 53.8914 94.4583 53.5048C94.9133 53.1182 95.2667 52.626 95.4876 52.0713C95.7085 51.5166 95.7903 50.9162 95.7257 50.3227C95.6611 49.7291 95.4521 49.1604 95.1171 48.6662C94.7821 48.172 94.3311 47.7673 93.8036 47.4876C93.2761 47.2078 92.6882 47.0615 92.0911 47.0614L92.0884 47.0632Z" fill="url(#paint0_linear_7512_442)"/>
<defs>
<filter id="filter0_bii_7512_442" x="-81.1" y="-81.1" width="311.555" height="311.555" filterUnits="userSpaceOnUse" color-interpolation-filters="sRGB">
<feFlood flood-opacity="0" result="BackgroundImageFix"/>
<feGaussianBlur in="BackgroundImageFix" stdDeviation="40.55"/>
<feComposite in2="SourceAlpha" operator="in" result="effect1_backgroundBlur_7512_442"/>
<feBlend mode="normal" in="SourceGraphic" in2="effect1_backgroundBlur_7512_442" result="shape"/>
<feColorMatrix in="SourceAlpha" type="matrix" values="0 0 0 0 0 0 0 0 0 0 0 0 0 0 0 0 0 0 127 0" result="hardAlpha"/>
<feOffset dy="2.9156"/>
<feGaussianBlur stdDeviation="1.4578"/>
<feComposite in2="hardAlpha" operator="arithmetic" k2="-1" k3="1"/>
<feColorMatrix type="matrix" values="0 0 0 0 1 0 0 0 0 1 0 0 0 0 1 0 0 0 0.15 0"/>
<feBlend mode="normal" in2="shape" result="effect2_innerShadow_7512_442"/>
<feColorMatrix in="SourceAlpha" type="matrix" values="0 0 0 0 0 0 0 0 0 0 0 0 0 0 0 0 0 0 127 0" result="hardAlpha"/>
<feOffset/>
<feGaussianBlur stdDeviation="24.7826"/>
<feComposite in2="hardAlpha" operator="arithmetic" k2="-1" k3="1"/>
<feColorMatrix type="matrix" values="0 0 0 0 1 0 0 0 0 1 0 0 0 0 1 0 0 0 0.05 0"/>
<feBlend mode="normal" in2="effect2_innerShadow_7512_442" result="effect3_innerShadow_7512_442"/>
</filter>
<linearGradient id="paint0_linear_7512_442" x1="74.705" y1="40.9741" x2="74.705" y2="109.038" gradientUnits="userSpaceOnUse">
<stop stop-color="#B3DAF2"/>
<stop offset="1" stop-color="white"/>
</linearGradient>
</defs>
</svg>
