<svg width="150" height="150" viewBox="0 0 150 150" fill="none" xmlns="http://www.w3.org/2000/svg">
<g filter="url(#filter0_bii_7512_445)">
<circle cx="74.6775" cy="74.6775" r="74.6775" fill="#0F244D" fill-opacity="0.4"/>
</g>
<g filter="url(#filter1_bii_7512_445)">
<circle cx="56.1212" cy="106.812" r="28.0606" fill="white" fill-opacity="0.03"/>
</g>
<path d="M52.3403 111.887C52.32 113.045 52.6249 113.96 53.255 114.631C53.8852 115.302 54.6678 115.729 55.6028 115.912V109.539C55.5012 109.498 55.3589 109.458 55.176 109.417C55.0134 109.356 54.8304 109.305 54.6271 109.264C53.875 109.061 53.1331 108.827 52.4013 108.563C51.6695 108.279 51.0088 107.913 50.4193 107.465C49.8502 106.998 49.3928 106.429 49.0472 105.758C48.7017 105.067 48.5289 104.213 48.5289 103.197C48.5289 102.16 48.722 101.245 49.1082 100.452C49.5148 99.6597 50.0433 98.9991 50.6938 98.4705C51.3442 97.9217 52.0964 97.505 52.9501 97.2204C53.8039 96.9155 54.6881 96.7325 55.6028 96.6716V94.3237H57.4018V96.6716C58.3166 96.7732 59.1703 96.9765 59.9631 97.2814C60.7762 97.566 61.4877 97.9725 62.0975 98.501C62.7073 99.0092 63.2053 99.6495 63.5916 100.422C63.9778 101.194 64.2014 102.109 64.2624 103.166H59.9326C59.9123 102.353 59.6582 101.662 59.1703 101.093C58.6825 100.524 58.093 100.239 57.4018 100.239V105.636C57.6458 105.697 57.8897 105.758 58.1336 105.819C58.3979 105.88 58.6723 105.951 58.9569 106.032C60.4611 106.439 61.6198 106.947 62.4329 107.557C63.246 108.146 63.8457 108.766 64.2319 109.417C64.6181 110.067 64.8417 110.718 64.9027 111.368C64.984 112.019 65.0247 112.598 65.0247 113.106C65.0247 113.554 64.9128 114.123 64.6892 114.814C64.4656 115.485 64.0591 116.145 63.4696 116.796C62.9004 117.446 62.128 118.026 61.1523 118.534C60.1765 119.042 58.9264 119.347 57.4018 119.449V122.04H55.6028V119.449C53.3262 119.286 51.5475 118.585 50.2669 117.345C48.9862 116.105 48.2443 114.285 48.041 111.887H52.3403ZM57.4018 115.912C57.7677 115.871 58.1438 115.79 58.53 115.668C58.9366 115.525 59.2923 115.332 59.5972 115.088C59.9224 114.844 60.1867 114.55 60.39 114.204C60.5933 113.838 60.6949 113.411 60.6949 112.923C60.6949 112.131 60.4408 111.541 59.9326 111.155C59.4447 110.748 58.6012 110.382 57.4018 110.057V115.912ZM55.6028 100.239C55.2573 100.239 54.9219 100.29 54.5966 100.391C54.2714 100.493 53.9766 100.656 53.7124 100.879C53.4481 101.083 53.2347 101.347 53.0721 101.672C52.9298 101.977 52.8586 102.343 52.8586 102.77C52.8586 103.441 53.0721 103.959 53.499 104.325C53.9258 104.691 54.6271 104.986 55.6028 105.209V100.239Z" fill="url(#paint0_linear_7512_445)"/>
<g filter="url(#filter2_bii_7512_445)">
<circle cx="50.69" cy="42.5435" r="28.0606" fill="white" fill-opacity="0.03"/>
</g>
<path d="M58.4059 35.8176C56.7888 34.778 55.2756 34.2583 53.8664 34.2583C51.4407 34.2583 49.8236 35.8407 49.015 39.0057H57.4703L56.396 41.5006H48.6339L48.5992 42.9561H55.9802L54.906 45.451H48.8764C49.6157 49.1011 51.3252 50.9261 54.005 50.9261C55.7376 50.9261 57.5165 50.1984 59.3415 48.743L59.3069 53.9756C57.759 54.8765 55.9802 55.327 53.9704 55.327C51.0595 55.327 48.7147 54.3914 46.9359 52.5202C45.3188 50.8337 44.2676 48.4774 43.7825 45.451H41.1142L42.1885 42.9561H43.5746V42.0551C43.5746 41.7317 43.5861 41.5468 43.6092 41.5006H41.0796L42.1538 39.0057H43.9211C44.4755 36.2104 45.6191 34.0041 47.3517 32.387C49.1767 30.6313 51.4638 29.7534 54.2129 29.7534C56.1535 29.7534 58.2557 30.331 60.5197 31.486L58.4059 35.8176Z" fill="url(#paint1_linear_7512_445)"/>
<g filter="url(#filter3_bii_7512_445)">
<circle cx="108.622" cy="63.3629" r="28.0606" fill="white" fill-opacity="0.03"/>
</g>
<path d="M100.733 72.5747C101.176 72.3003 101.609 71.9837 102.031 71.6249C102.474 71.245 102.854 70.8335 103.171 70.3902C103.508 69.947 103.783 69.4721 103.994 68.9656C104.205 68.4379 104.311 67.8891 104.311 67.3193C104.311 66.9605 104.247 66.6122 104.121 66.2745C104.015 65.9157 103.878 65.5569 103.709 65.1981H100.575V62.5071H102.601C102.284 62.1061 101.968 61.5151 101.651 60.7341C101.335 59.9532 101.176 59.0879 101.176 58.1381C101.176 57.2938 101.345 56.4918 101.683 55.732C102.042 54.9722 102.559 54.3073 103.234 53.7374C103.909 53.1465 104.754 52.6821 105.767 52.3444C106.78 52.0067 107.951 51.8379 109.281 51.8379C111.708 51.8379 113.597 52.5133 114.948 53.8641C116.299 55.2149 116.974 57.1778 116.974 59.7527H112.7C112.679 59.4361 112.637 59.0457 112.574 58.5813C112.51 58.0959 112.363 57.6315 112.13 57.1883C111.919 56.7451 111.582 56.3652 111.117 56.0486C110.674 55.7109 110.051 55.542 109.249 55.542C108.3 55.542 107.54 55.8059 106.97 56.3335C106.421 56.8612 106.147 57.5682 106.147 58.4547C106.147 58.708 106.157 58.9507 106.178 59.1828C106.2 59.415 106.242 59.6894 106.305 60.006C106.389 60.3015 106.516 60.6497 106.685 61.0507C106.875 61.4518 107.128 61.9372 107.445 62.5071H111.655V65.1981H108.331C108.437 65.5147 108.5 65.8313 108.521 66.1479C108.563 66.4645 108.585 66.8022 108.585 67.161C108.585 68.153 108.321 69.0078 107.793 69.7254C107.286 70.4219 106.685 71.0445 105.988 71.5933L106.052 71.6566C106.558 71.34 106.97 71.1395 107.286 71.0551C107.603 70.9707 107.909 70.9284 108.205 70.9284C108.627 70.9284 109.038 70.9707 109.439 71.0551C109.861 71.1184 110.284 71.1923 110.706 71.2767C111.128 71.3822 111.539 71.4772 111.94 71.5616C112.341 71.6249 112.753 71.6566 113.175 71.6566C113.597 71.6566 114.019 71.5827 114.441 71.435C114.885 71.2872 115.391 70.9073 115.961 70.2953L117.861 73.4928C117.101 74.2316 116.288 74.7487 115.423 75.0441C114.558 75.3396 113.724 75.4874 112.922 75.4874C112.12 75.4874 111.455 75.4346 110.927 75.3291C110.4 75.2235 109.914 75.0969 109.471 74.9492C109.007 74.7803 108.542 74.6326 108.078 74.5059C107.614 74.3793 107.033 74.316 106.337 74.316C105.767 74.316 105.165 74.4004 104.532 74.5693C103.92 74.717 103.308 75.023 102.696 75.4874L100.733 72.5747Z" fill="url(#paint2_linear_7512_445)"/>
<defs>
<filter id="filter0_bii_7512_445" x="-81.1" y="-81.1" width="311.555" height="311.555" filterUnits="userSpaceOnUse" color-interpolation-filters="sRGB">
<feFlood flood-opacity="0" result="BackgroundImageFix"/>
<feGaussianBlur in="BackgroundImageFix" stdDeviation="40.55"/>
<feComposite in2="SourceAlpha" operator="in" result="effect1_backgroundBlur_7512_445"/>
<feBlend mode="normal" in="SourceGraphic" in2="effect1_backgroundBlur_7512_445" result="shape"/>
<feColorMatrix in="SourceAlpha" type="matrix" values="0 0 0 0 0 0 0 0 0 0 0 0 0 0 0 0 0 0 127 0" result="hardAlpha"/>
<feOffset dy="2.9156"/>
<feGaussianBlur stdDeviation="1.4578"/>
<feComposite in2="hardAlpha" operator="arithmetic" k2="-1" k3="1"/>
<feColorMatrix type="matrix" values="0 0 0 0 1 0 0 0 0 1 0 0 0 0 1 0 0 0 0.15 0"/>
<feBlend mode="normal" in2="shape" result="effect2_innerShadow_7512_445"/>
<feColorMatrix in="SourceAlpha" type="matrix" values="0 0 0 0 0 0 0 0 0 0 0 0 0 0 0 0 0 0 127 0" result="hardAlpha"/>
<feOffset/>
<feGaussianBlur stdDeviation="24.7826"/>
<feComposite in2="hardAlpha" operator="arithmetic" k2="-1" k3="1"/>
<feColorMatrix type="matrix" values="0 0 0 0 1 0 0 0 0 1 0 0 0 0 1 0 0 0 0.05 0"/>
<feBlend mode="normal" in2="effect2_innerShadow_7512_445" result="effect3_innerShadow_7512_445"/>
</filter>
<filter id="filter1_bii_7512_445" x="2.16332" y="52.8538" width="107.916" height="107.916" filterUnits="userSpaceOnUse" color-interpolation-filters="sRGB">
<feFlood flood-opacity="0" result="BackgroundImageFix"/>
<feGaussianBlur in="BackgroundImageFix" stdDeviation="12.9486"/>
<feComposite in2="SourceAlpha" operator="in" result="effect1_backgroundBlur_7512_445"/>
<feBlend mode="normal" in="SourceGraphic" in2="effect1_backgroundBlur_7512_445" result="shape"/>
<feColorMatrix in="SourceAlpha" type="matrix" values="0 0 0 0 0 0 0 0 0 0 0 0 0 0 0 0 0 0 127 0" result="hardAlpha"/>
<feOffset dy="1.10201"/>
<feGaussianBlur stdDeviation="0.551005"/>
<feComposite in2="hardAlpha" operator="arithmetic" k2="-1" k3="1"/>
<feColorMatrix type="matrix" values="0 0 0 0 1 0 0 0 0 1 0 0 0 0 1 0 0 0 0.15 0"/>
<feBlend mode="normal" in2="shape" result="effect2_innerShadow_7512_445"/>
<feColorMatrix in="SourceAlpha" type="matrix" values="0 0 0 0 0 0 0 0 0 0 0 0 0 0 0 0 0 0 127 0" result="hardAlpha"/>
<feOffset/>
<feGaussianBlur stdDeviation="9.36708"/>
<feComposite in2="hardAlpha" operator="arithmetic" k2="-1" k3="1"/>
<feColorMatrix type="matrix" values="0 0 0 0 1 0 0 0 0 1 0 0 0 0 1 0 0 0 0.05 0"/>
<feBlend mode="normal" in2="effect2_innerShadow_7512_445" result="effect3_innerShadow_7512_445"/>
</filter>
<filter id="filter2_bii_7512_445" x="-3.26783" y="-11.4143" width="107.916" height="107.916" filterUnits="userSpaceOnUse" color-interpolation-filters="sRGB">
<feFlood flood-opacity="0" result="BackgroundImageFix"/>
<feGaussianBlur in="BackgroundImageFix" stdDeviation="12.9486"/>
<feComposite in2="SourceAlpha" operator="in" result="effect1_backgroundBlur_7512_445"/>
<feBlend mode="normal" in="SourceGraphic" in2="effect1_backgroundBlur_7512_445" result="shape"/>
<feColorMatrix in="SourceAlpha" type="matrix" values="0 0 0 0 0 0 0 0 0 0 0 0 0 0 0 0 0 0 127 0" result="hardAlpha"/>
<feOffset dy="1.10201"/>
<feGaussianBlur stdDeviation="0.551005"/>
<feComposite in2="hardAlpha" operator="arithmetic" k2="-1" k3="1"/>
<feColorMatrix type="matrix" values="0 0 0 0 1 0 0 0 0 1 0 0 0 0 1 0 0 0 0.15 0"/>
<feBlend mode="normal" in2="shape" result="effect2_innerShadow_7512_445"/>
<feColorMatrix in="SourceAlpha" type="matrix" values="0 0 0 0 0 0 0 0 0 0 0 0 0 0 0 0 0 0 127 0" result="hardAlpha"/>
<feOffset/>
<feGaussianBlur stdDeviation="9.36708"/>
<feComposite in2="hardAlpha" operator="arithmetic" k2="-1" k3="1"/>
<feColorMatrix type="matrix" values="0 0 0 0 1 0 0 0 0 1 0 0 0 0 1 0 0 0 0.05 0"/>
<feBlend mode="normal" in2="effect2_innerShadow_7512_445" result="effect3_innerShadow_7512_445"/>
</filter>
<filter id="filter3_bii_7512_445" x="54.6638" y="9.40502" width="107.916" height="107.916" filterUnits="userSpaceOnUse" color-interpolation-filters="sRGB">
<feFlood flood-opacity="0" result="BackgroundImageFix"/>
<feGaussianBlur in="BackgroundImageFix" stdDeviation="12.9486"/>
<feComposite in2="SourceAlpha" operator="in" result="effect1_backgroundBlur_7512_445"/>
<feBlend mode="normal" in="SourceGraphic" in2="effect1_backgroundBlur_7512_445" result="shape"/>
<feColorMatrix in="SourceAlpha" type="matrix" values="0 0 0 0 0 0 0 0 0 0 0 0 0 0 0 0 0 0 127 0" result="hardAlpha"/>
<feOffset dy="1.10201"/>
<feGaussianBlur stdDeviation="0.551005"/>
<feComposite in2="hardAlpha" operator="arithmetic" k2="-1" k3="1"/>
<feColorMatrix type="matrix" values="0 0 0 0 1 0 0 0 0 1 0 0 0 0 1 0 0 0 0.15 0"/>
<feBlend mode="normal" in2="shape" result="effect2_innerShadow_7512_445"/>
<feColorMatrix in="SourceAlpha" type="matrix" values="0 0 0 0 0 0 0 0 0 0 0 0 0 0 0 0 0 0 127 0" result="hardAlpha"/>
<feOffset/>
<feGaussianBlur stdDeviation="9.36708"/>
<feComposite in2="hardAlpha" operator="arithmetic" k2="-1" k3="1"/>
<feColorMatrix type="matrix" values="0 0 0 0 1 0 0 0 0 1 0 0 0 0 1 0 0 0 0.05 0"/>
<feBlend mode="normal" in2="effect2_innerShadow_7512_445" result="effect3_innerShadow_7512_445"/>
</filter>
<linearGradient id="paint0_linear_7512_445" x1="56.5328" y1="94.3237" x2="56.5328" y2="122.04" gradientUnits="userSpaceOnUse">
<stop stop-color="#B3DAF2"/>
<stop offset="1" stop-color="white"/>
</linearGradient>
<linearGradient id="paint1_linear_7512_445" x1="50.7996" y1="29.7534" x2="50.7996" y2="55.327" gradientUnits="userSpaceOnUse">
<stop stop-color="#B3DAF2"/>
<stop offset="1" stop-color="white"/>
</linearGradient>
<linearGradient id="paint2_linear_7512_445" x1="109.218" y1="51.8379" x2="109.218" y2="75.4874" gradientUnits="userSpaceOnUse">
<stop stop-color="#B3DAF2"/>
<stop offset="1" stop-color="white"/>
</linearGradient>
</defs>
</svg>
