<svg width="150" height="150" viewBox="0 0 150 150" fill="none" xmlns="http://www.w3.org/2000/svg">
<g filter="url(#filter0_bii_7512_418)">
<circle cx="74.6775" cy="74.6775" r="74.6775" fill="#0F244D" fill-opacity="0.4"/>
</g>
<path d="M98.988 63.3981C92.5762 65.5353 84.1173 66.75 75.0557 66.75C65.9941 66.75 57.5352 65.5353 51.1234 63.395C48.5575 62.5438 46.0847 61.4628 43.991 60.099V73.4724C43.991 79.1914 57.8987 83.8263 75.0557 83.8263C92.2128 83.8263 106.12 79.1914 106.12 73.4724V60.0959C104.027 61.4628 101.557 62.5407 98.9849 63.3981" fill="url(#paint0_linear_7512_418)"/>
<path d="M106.12 83.3851C104.027 84.7489 101.557 85.8299 98.9849 86.6842C92.5762 88.8215 84.1173 90.0392 75.0557 90.0392C65.9941 90.0392 57.5352 88.8215 51.1234 86.6842C48.5575 85.833 46.0847 84.752 43.991 83.3851V97.8147C43.991 103.531 57.8987 108.169 75.0557 108.169C92.2128 108.169 106.12 103.534 106.12 97.8147V83.3851ZM75.0557 60.537C57.8987 60.537 43.991 55.8991 43.991 50.18V50.1707C44.0065 44.4548 57.908 39.8262 75.0557 39.8262C87.9227 39.8262 98.9631 42.4356 103.679 46.151C105.251 47.3904 106.12 48.7511 106.12 50.18C106.12 55.8991 92.2128 60.537 75.0557 60.537Z" fill="url(#paint1_linear_7512_418)"/>
<defs>
<filter id="filter0_bii_7512_418" x="-81.1" y="-81.1" width="311.555" height="311.555" filterUnits="userSpaceOnUse" color-interpolation-filters="sRGB">
<feFlood flood-opacity="0" result="BackgroundImageFix"/>
<feGaussianBlur in="BackgroundImageFix" stdDeviation="40.55"/>
<feComposite in2="SourceAlpha" operator="in" result="effect1_backgroundBlur_7512_418"/>
<feBlend mode="normal" in="SourceGraphic" in2="effect1_backgroundBlur_7512_418" result="shape"/>
<feColorMatrix in="SourceAlpha" type="matrix" values="0 0 0 0 0 0 0 0 0 0 0 0 0 0 0 0 0 0 127 0" result="hardAlpha"/>
<feOffset dy="2.9156"/>
<feGaussianBlur stdDeviation="1.4578"/>
<feComposite in2="hardAlpha" operator="arithmetic" k2="-1" k3="1"/>
<feColorMatrix type="matrix" values="0 0 0 0 1 0 0 0 0 1 0 0 0 0 1 0 0 0 0.15 0"/>
<feBlend mode="normal" in2="shape" result="effect2_innerShadow_7512_418"/>
<feColorMatrix in="SourceAlpha" type="matrix" values="0 0 0 0 0 0 0 0 0 0 0 0 0 0 0 0 0 0 127 0" result="hardAlpha"/>
<feOffset/>
<feGaussianBlur stdDeviation="24.7826"/>
<feComposite in2="hardAlpha" operator="arithmetic" k2="-1" k3="1"/>
<feColorMatrix type="matrix" values="0 0 0 0 1 0 0 0 0 1 0 0 0 0 1 0 0 0 0.05 0"/>
<feBlend mode="normal" in2="effect2_innerShadow_7512_418" result="effect3_innerShadow_7512_418"/>
</filter>
<linearGradient id="paint0_linear_7512_418" x1="75.0557" y1="39.8262" x2="75.0557" y2="108.169" gradientUnits="userSpaceOnUse">
<stop stop-color="#B3DAF2"/>
<stop offset="1" stop-color="white"/>
</linearGradient>
<linearGradient id="paint1_linear_7512_418" x1="75.0557" y1="39.8262" x2="75.0557" y2="108.169" gradientUnits="userSpaceOnUse">
<stop stop-color="#B3DAF2"/>
<stop offset="1" stop-color="white"/>
</linearGradient>
</defs>
</svg>
