<svg width="150" height="150" viewBox="0 0 150 150" fill="none" xmlns="http://www.w3.org/2000/svg">
<g filter="url(#filter0_bii_7512_439)">
<circle cx="74.6775" cy="74.6775" r="74.6775" fill="#0F244D" fill-opacity="0.4"/>
</g>
<path fill-rule="evenodd" clip-rule="evenodd" d="M116.771 70.4576C116.771 69.7332 116.483 69.039 115.971 68.5267C115.459 68.0144 114.765 67.7273 114.04 67.7273C105.5 67.7273 79.352 67.7273 70.8122 67.7273C70.0879 67.7273 69.3936 68.0144 68.8813 68.5267C68.369 69.039 68.0819 69.7332 68.0819 70.4576C68.0819 76.8488 68.0819 92.7256 68.0819 99.1168C68.0819 99.8411 68.369 100.535 68.8813 101.046C69.3936 101.558 70.0879 101.845 70.8122 101.845C79.352 101.845 105.5 101.845 114.04 101.845C114.765 101.845 115.459 101.558 115.971 101.046C116.483 100.535 116.771 99.8411 116.771 99.1168C116.771 92.7256 116.771 76.8488 116.771 70.4576ZM89.6857 84.1614C88.2126 83.2438 87.2294 81.6094 87.2294 79.7479C87.2294 76.8788 89.558 74.552 92.4253 74.552C95.2944 74.552 97.6231 76.8788 97.6231 79.7479C97.6231 81.615 96.6361 83.2532 95.1555 84.1689L95.1612 92.2864C95.1612 93.797 93.9377 95.0223 92.4272 95.0223H92.4253C90.9166 95.0223 89.6913 93.797 89.6913 92.2864L89.6857 84.1614Z" fill="url(#paint0_linear_7512_439)"/>
<path fill-rule="evenodd" clip-rule="evenodd" d="M76.0921 67.7274V56.8082C76.0921 47.7876 83.4046 40.4759 92.4247 40.4759H92.4277C101.448 40.4759 108.76 47.7876 108.76 56.8082C108.76 62.6726 108.76 67.7274 108.76 67.7274C108.76 68.5036 109.392 69.1353 110.168 69.1353C110.944 69.1353 111.575 68.5036 111.575 67.7274C111.575 67.7274 111.575 62.6726 111.575 56.8082C111.575 46.2329 103.003 37.6602 92.4277 37.6602H92.4247C81.8493 37.6602 73.2771 46.2329 73.2771 56.8082V67.7274C73.2771 68.5036 73.9085 69.1353 74.6846 69.1353C75.4608 69.1353 76.0921 68.5036 76.0921 67.7274Z" fill="url(#paint1_linear_7512_439)"/>
<path fill-rule="evenodd" clip-rule="evenodd" d="M51.5283 77.2013C53.6393 82.1704 52.6707 88.1439 48.6184 92.1962C43.2938 97.5209 34.6453 97.5208 29.3206 92.1962C23.9946 86.8701 23.9946 78.2217 29.3193 72.897C33.3715 68.8448 39.345 67.8761 44.3154 69.9885L60.527 53.7769L67.0087 54.508L67.7398 60.9897L65.5478 63.1817C65.5478 63.1817 66.1595 66.2189 66.5377 68.0885C66.6014 68.4069 66.5019 68.7346 66.2723 68.9642C66.0428 69.1937 65.715 69.2932 65.3966 69.2296C63.527 68.8514 60.4899 68.2397 60.4899 68.2397L59.8357 68.8939C59.8357 68.8939 60.4487 71.9297 60.8256 73.8006C60.8906 74.1177 60.7897 74.4468 60.5602 74.6763C60.332 74.9045 60.0029 75.0054 59.6858 74.9404C57.8149 74.5635 54.7791 73.9505 54.7791 73.9505L51.5283 77.2013ZM33.7085 82.5459C35.1601 81.0943 37.5179 81.0957 38.9695 82.5472C40.4211 83.9988 40.4211 86.3553 38.9695 87.8069C37.518 89.2585 35.1601 89.2598 33.7085 87.8082C32.2569 86.3567 32.2569 83.9975 33.7085 82.5459Z" fill="url(#paint2_linear_7512_439)"/>
<defs>
<filter id="filter0_bii_7512_439" x="-81.1" y="-81.1" width="311.555" height="311.555" filterUnits="userSpaceOnUse" color-interpolation-filters="sRGB">
<feFlood flood-opacity="0" result="BackgroundImageFix"/>
<feGaussianBlur in="BackgroundImageFix" stdDeviation="40.55"/>
<feComposite in2="SourceAlpha" operator="in" result="effect1_backgroundBlur_7512_439"/>
<feBlend mode="normal" in="SourceGraphic" in2="effect1_backgroundBlur_7512_439" result="shape"/>
<feColorMatrix in="SourceAlpha" type="matrix" values="0 0 0 0 0 0 0 0 0 0 0 0 0 0 0 0 0 0 127 0" result="hardAlpha"/>
<feOffset dy="2.9156"/>
<feGaussianBlur stdDeviation="1.4578"/>
<feComposite in2="hardAlpha" operator="arithmetic" k2="-1" k3="1"/>
<feColorMatrix type="matrix" values="0 0 0 0 1 0 0 0 0 1 0 0 0 0 1 0 0 0 0.15 0"/>
<feBlend mode="normal" in2="shape" result="effect2_innerShadow_7512_439"/>
<feColorMatrix in="SourceAlpha" type="matrix" values="0 0 0 0 0 0 0 0 0 0 0 0 0 0 0 0 0 0 127 0" result="hardAlpha"/>
<feOffset/>
<feGaussianBlur stdDeviation="24.7826"/>
<feComposite in2="hardAlpha" operator="arithmetic" k2="-1" k3="1"/>
<feColorMatrix type="matrix" values="0 0 0 0 1 0 0 0 0 1 0 0 0 0 1 0 0 0 0.05 0"/>
<feBlend mode="normal" in2="effect2_innerShadow_7512_439" result="effect3_innerShadow_7512_439"/>
</filter>
<linearGradient id="paint0_linear_7512_439" x1="71.0482" y1="37.6602" x2="71.0482" y2="101.845" gradientUnits="userSpaceOnUse">
<stop stop-color="#B3DAF2"/>
<stop offset="1" stop-color="white"/>
</linearGradient>
<linearGradient id="paint1_linear_7512_439" x1="71.0482" y1="37.6602" x2="71.0482" y2="101.845" gradientUnits="userSpaceOnUse">
<stop stop-color="#B3DAF2"/>
<stop offset="1" stop-color="white"/>
</linearGradient>
<linearGradient id="paint2_linear_7512_439" x1="71.0482" y1="37.6602" x2="71.0482" y2="101.845" gradientUnits="userSpaceOnUse">
<stop stop-color="#B3DAF2"/>
<stop offset="1" stop-color="white"/>
</linearGradient>
</defs>
</svg>
