<svg width="150" height="150" viewBox="0 0 150 150" fill="none" xmlns="http://www.w3.org/2000/svg">
<g filter="url(#filter0_bii_7512_436)">
<circle cx="74.6775" cy="74.6775" r="74.6775" fill="#0F244D" fill-opacity="0.4"/>
</g>
<path fill-rule="evenodd" clip-rule="evenodd" d="M41.2615 65.816C41.2615 64.4621 42.3572 63.3645 43.7196 63.3645H68.8413C70.1989 63.3645 71.2995 64.467 71.2995 65.816V109.342C71.2995 110.696 70.2037 111.793 68.8413 111.793H43.7196C42.362 111.793 41.2615 110.691 41.2615 109.342V65.816ZM44.9396 67.6557H67.6214V101.372H44.9396V67.6557ZM56.587 108.728C57.9412 108.728 59.0391 107.63 59.0391 106.276C59.0391 104.922 57.9412 103.824 56.587 103.824C55.2327 103.824 54.1349 104.922 54.1349 106.276C54.1349 107.63 55.2327 108.728 56.587 108.728ZM77.4297 65.816C77.4297 64.4621 78.5254 63.3645 79.8878 63.3645H105.01C106.367 63.3645 107.468 64.467 107.468 65.816V109.342C107.468 110.696 106.372 111.793 105.01 111.793H79.8878C78.5302 111.793 77.4297 110.691 77.4297 109.342V65.816ZM81.1078 67.6557H103.79V101.372H81.1078V67.6557ZM92.7552 108.728C94.1094 108.728 95.2073 107.63 95.2073 106.276C95.2073 104.922 94.1094 103.824 92.7552 103.824C91.401 103.824 90.3031 104.922 90.3031 106.276C90.3031 107.63 91.401 108.728 92.7552 108.728ZM95.2073 58.4604C95.2073 46.9493 85.8757 37.6177 74.3646 37.6177C62.8535 37.6177 53.5219 46.9493 53.5219 58.4604C53.5219 59.1375 54.0708 59.6864 54.7479 59.6864C55.4251 59.6864 55.974 59.1375 55.974 58.4604C55.974 48.3035 64.2077 40.0698 74.3646 40.0698C84.5214 40.0698 92.7552 48.3035 92.7552 58.4604C92.7552 59.1375 93.3041 59.6864 93.9812 59.6864C94.6584 59.6864 95.2073 59.1375 95.2073 58.4604ZM88.4641 58.4604C88.4641 50.6734 82.1515 44.3609 74.3646 44.3609C66.5777 44.3609 60.2651 50.6734 60.2651 58.4604C60.2651 59.1375 60.814 59.6864 61.4912 59.6864C62.1683 59.6864 62.7172 59.1375 62.7172 58.4604C62.7172 52.0277 67.9319 46.813 74.3646 46.813C80.7973 46.813 86.012 52.0277 86.012 58.4604C86.012 59.1375 86.5609 59.6864 87.238 59.6864C87.9151 59.6864 88.4641 59.1375 88.4641 58.4604ZM81.7208 58.4604C81.7208 54.3976 78.4273 51.1041 74.3646 51.1041C70.3018 51.1041 67.0083 54.3976 67.0083 58.4604C67.0083 59.1375 67.5573 59.6864 68.2344 59.6864C68.9115 59.6864 69.4604 59.1375 69.4604 58.4604C69.4604 55.7519 71.6561 53.5562 74.3646 53.5562C77.0731 53.5562 79.2687 55.7519 79.2687 58.4604C79.2687 59.1375 79.8177 59.6864 80.4948 59.6864C81.1719 59.6864 81.7208 59.1375 81.7208 58.4604Z" fill="url(#paint0_linear_7512_436)"/>
<defs>
<filter id="filter0_bii_7512_436" x="-81.1" y="-81.1" width="311.555" height="311.555" filterUnits="userSpaceOnUse" color-interpolation-filters="sRGB">
<feFlood flood-opacity="0" result="BackgroundImageFix"/>
<feGaussianBlur in="BackgroundImageFix" stdDeviation="40.55"/>
<feComposite in2="SourceAlpha" operator="in" result="effect1_backgroundBlur_7512_436"/>
<feBlend mode="normal" in="SourceGraphic" in2="effect1_backgroundBlur_7512_436" result="shape"/>
<feColorMatrix in="SourceAlpha" type="matrix" values="0 0 0 0 0 0 0 0 0 0 0 0 0 0 0 0 0 0 127 0" result="hardAlpha"/>
<feOffset dy="2.9156"/>
<feGaussianBlur stdDeviation="1.4578"/>
<feComposite in2="hardAlpha" operator="arithmetic" k2="-1" k3="1"/>
<feColorMatrix type="matrix" values="0 0 0 0 1 0 0 0 0 1 0 0 0 0 1 0 0 0 0.15 0"/>
<feBlend mode="normal" in2="shape" result="effect2_innerShadow_7512_436"/>
<feColorMatrix in="SourceAlpha" type="matrix" values="0 0 0 0 0 0 0 0 0 0 0 0 0 0 0 0 0 0 127 0" result="hardAlpha"/>
<feOffset/>
<feGaussianBlur stdDeviation="24.7826"/>
<feComposite in2="hardAlpha" operator="arithmetic" k2="-1" k3="1"/>
<feColorMatrix type="matrix" values="0 0 0 0 1 0 0 0 0 1 0 0 0 0 1 0 0 0 0.05 0"/>
<feBlend mode="normal" in2="effect2_innerShadow_7512_436" result="effect3_innerShadow_7512_436"/>
</filter>
<linearGradient id="paint0_linear_7512_436" x1="74.3646" y1="37.6177" x2="74.3646" y2="111.793" gradientUnits="userSpaceOnUse">
<stop stop-color="#B3DAF2"/>
<stop offset="1" stop-color="white"/>
</linearGradient>
</defs>
</svg>
