<svg width="150" height="150" viewBox="0 0 150 150" fill="none" xmlns="http://www.w3.org/2000/svg">
<g filter="url(#filter0_bii_7512_421)">
<circle cx="74.6775" cy="74.6775" r="74.6775" fill="#0F244D" fill-opacity="0.4"/>
</g>
<path d="M67.1655 59.3237H62.5569C61.931 59.3237 61.4236 59.8311 61.4236 60.457V64.9901C61.4236 65.616 61.931 66.1234 62.5569 66.1234H67.1655C67.7914 66.1234 68.2988 65.616 68.2988 64.9901V60.457C68.2988 59.8311 67.7914 59.3237 67.1655 59.3237ZM66.0322 63.8568H63.6901V61.5903H66.0322V63.8568Z" fill="url(#paint0_linear_7512_421)"/>
<path d="M62.5569 88.7889H67.1655C67.7914 88.7889 68.2988 88.2815 68.2988 87.6556V83.1225C68.2988 82.4967 67.7914 81.9893 67.1655 81.9893H62.5569C61.931 81.9893 61.4236 82.4967 61.4236 83.1225V87.6556C61.4236 88.2815 61.931 88.7889 62.5569 88.7889ZM63.6901 84.2558H66.0322V86.5224H63.6901V84.2558Z" fill="url(#paint1_linear_7512_421)"/>
<path d="M94.4402 54.7153H80.7653C80.1394 54.7153 79.632 55.2227 79.632 55.8486V61.5906H77.3654V58.1907C77.3654 57.5648 76.858 57.0574 76.2322 57.0574H72.8323V55.8486C72.8323 55.2227 72.3249 54.7153 71.699 54.7153H58.0241C57.3983 54.7153 56.8909 55.2227 56.8909 55.8486V69.5235C56.8909 70.1494 57.3983 70.6568 58.0241 70.6568H68.2992V74.0566C68.2992 74.6825 68.8066 75.1899 69.4325 75.1899C70.0584 75.1899 70.5658 74.6825 70.5658 74.0566V70.6568H71.699C72.3249 70.6568 72.8323 70.1494 72.8323 69.5235V59.324H75.0989V62.7238C75.0989 63.3497 75.6063 63.8571 76.2322 63.8571H79.632V66.1237H76.2322C75.6063 66.1237 75.0989 66.6311 75.0989 67.2569C75.0989 67.8828 75.6063 68.3902 76.2322 68.3902H79.632V69.5235C79.632 70.1494 80.1394 70.6568 80.7653 70.6568H84.1651V74.0566C84.1651 74.6825 84.6725 75.1899 85.2984 75.1899C85.9243 75.1899 86.4317 74.6825 86.4317 74.0566V70.6568H90.9648V72.9233H89.8315C89.2056 72.9233 88.6982 73.4307 88.6982 74.0566C88.6982 74.6825 89.2056 75.1899 89.8315 75.1899H92.098C92.7239 75.1899 93.2313 74.6825 93.2313 74.0566V70.6568H94.4402C95.066 70.6568 95.5734 70.1494 95.5734 69.5235V55.8486C95.5734 55.2227 95.066 54.7153 94.4402 54.7153ZM70.5658 68.3902H59.1574V56.9819H70.5658V68.3902ZM93.3069 68.3902H81.8985V56.9819H93.3069V68.3902Z" fill="url(#paint2_linear_7512_421)"/>
<path d="M85.2988 66.1234H89.8319C90.4578 66.1234 90.9652 65.616 90.9652 64.9901V60.457C90.9652 59.8311 90.4578 59.3237 89.8319 59.3237H85.2988C84.6729 59.3237 84.1655 59.8311 84.1655 60.457V64.9901C84.1655 65.616 84.6729 66.1234 85.2988 66.1234ZM86.4321 61.5903H88.6986V63.8568H86.4321V61.5903Z" fill="url(#paint3_linear_7512_421)"/>
<path d="M86.4321 81.9893H84.1655V84.2558H86.4321V81.9893Z" fill="url(#paint4_linear_7512_421)"/>
<path d="M64.8994 75.1899C65.5252 75.1899 66.0326 74.6825 66.0326 74.0566C66.0326 73.4307 65.5252 72.9233 64.8994 72.9233H60.2907C59.6648 72.9233 59.1574 73.4307 59.1574 74.0566V77.4565H58.0241C57.3983 77.4565 56.8909 77.9639 56.8909 78.5897V92.2646C56.8909 92.8905 57.3983 93.3979 58.0241 93.3979H71.699C72.3249 93.3979 72.8323 92.8905 72.8323 92.2646V88.7892H75.0989V89.9981C75.0989 90.6239 75.6063 91.1313 76.2322 91.1313C76.858 91.1313 77.3654 90.6239 77.3654 89.9981V87.656C77.3654 87.0301 76.858 86.5227 76.2322 86.5227H72.8323V84.2561H76.2322C76.858 84.2561 77.3654 83.7487 77.3654 83.1228C77.3654 82.497 76.858 81.9896 76.2322 81.9896H72.8323V78.5897C72.8323 77.9639 72.3249 77.4565 71.699 77.4565H61.424V75.1899H64.8994ZM70.5658 91.1313H59.1574V79.723H70.5658V91.1313Z" fill="url(#paint5_linear_7512_421)"/>
<path d="M81.8985 74.0566C81.8985 73.4307 81.3911 72.9233 80.7653 72.9233H76.2322C75.6063 72.9233 75.0989 73.4307 75.0989 74.0566V78.5897C75.0989 79.2156 75.6063 79.723 76.2322 79.723C76.858 79.723 77.3654 79.2156 77.3654 78.5897V75.1899H80.7653C81.3911 75.1899 81.8985 74.6825 81.8985 74.0566Z" fill="url(#paint6_linear_7512_421)"/>
<path d="M94.44 77.4556C93.8141 77.4556 93.3067 77.963 93.3067 78.5888V81.9887H90.9646V78.5888C90.9646 77.963 90.4572 77.4556 89.8313 77.4556H80.7651C80.1392 77.4556 79.6318 77.963 79.6318 78.5888V87.6551C79.6318 88.2809 80.1392 88.7883 80.7651 88.7883H84.1649V91.1305H80.7651C80.1392 91.1305 79.6318 91.6379 79.6318 92.2637C79.6318 92.8896 80.1392 93.397 80.7651 93.397H85.2982C85.9241 93.397 86.4315 92.8896 86.4315 92.2637V88.7883H89.8313C90.4572 88.7883 90.9646 88.2809 90.9646 87.6551V84.2552H94.44C95.0659 84.2552 95.5733 83.7478 95.5733 83.122V78.5888C95.5733 77.963 95.0659 77.4556 94.44 77.4556ZM88.6981 86.5218H81.8984V79.7221H88.6981V86.5218Z" fill="url(#paint7_linear_7512_421)"/>
<path d="M94.4402 86.5225C93.8143 86.5225 93.3069 87.0299 93.3069 87.6557V91.1311H89.8315C89.2056 91.1311 88.6982 91.6385 88.6982 92.2644C88.6982 92.8903 89.2056 93.3977 89.8315 93.3977H94.4402C95.0661 93.3977 95.5735 92.8903 95.5735 92.2644V87.6557C95.5735 87.0299 95.0661 86.5225 94.4402 86.5225Z" fill="url(#paint8_linear_7512_421)"/>
<path d="M128.591 102.071C126.485 99.9646 123.977 98.4051 121.241 97.4611C124.171 95.443 126.096 92.0656 126.096 88.2466C126.096 82.0811 121.08 77.0649 114.915 77.0649C108.749 77.0649 103.733 82.0811 103.733 88.2466C103.733 92.0656 105.658 95.443 108.588 97.4611C105.852 98.4051 103.345 99.9646 101.238 102.071C97.5854 105.724 95.5735 110.581 95.5735 115.748H98.5956C98.5956 106.749 105.916 99.4283 114.915 99.4283C123.913 99.4283 131.234 106.749 131.234 115.748H134.256C134.256 110.581 132.244 105.724 128.591 102.071ZM114.915 96.4062C110.416 96.4062 106.755 92.7459 106.755 88.2466C106.755 83.7474 110.416 80.087 114.915 80.087C119.414 80.087 123.074 83.7474 123.074 88.2466C123.074 92.7459 119.414 96.4062 114.915 96.4062Z" fill="url(#paint9_linear_7512_421)"/>
<path d="M44.349 57.3709C42.2424 55.2644 39.735 53.7049 36.9992 52.7609C39.9293 50.7428 41.8543 47.3654 41.8543 43.5464C41.8543 37.3809 36.8381 32.3647 30.6726 32.3647C24.507 32.3647 19.4909 37.3809 19.4909 43.5464C19.4909 47.3654 21.4159 50.7428 24.346 52.7609C21.6103 53.7049 19.1029 55.2644 16.9963 57.3709C13.3432 61.0241 11.3313 65.8811 11.3313 71.0473H14.3534C14.3534 62.0489 21.6741 54.7281 30.6726 54.7281C39.671 54.7281 46.9918 62.0489 46.9918 71.0473H50.0139C50.0139 65.8811 48.002 61.0241 44.349 57.3709ZM30.6726 51.706C26.1734 51.706 22.513 48.0457 22.513 43.5464C22.513 39.0472 26.1734 35.3868 30.6726 35.3868C35.1718 35.3868 38.8322 39.0472 38.8322 43.5464C38.8322 48.0457 35.1718 51.706 30.6726 51.706Z" fill="url(#paint10_linear_7512_421)"/>
<defs>
<filter id="filter0_bii_7512_421" x="-81.1" y="-81.1" width="311.555" height="311.555" filterUnits="userSpaceOnUse" color-interpolation-filters="sRGB">
<feFlood flood-opacity="0" result="BackgroundImageFix"/>
<feGaussianBlur in="BackgroundImageFix" stdDeviation="40.55"/>
<feComposite in2="SourceAlpha" operator="in" result="effect1_backgroundBlur_7512_421"/>
<feBlend mode="normal" in="SourceGraphic" in2="effect1_backgroundBlur_7512_421" result="shape"/>
<feColorMatrix in="SourceAlpha" type="matrix" values="0 0 0 0 0 0 0 0 0 0 0 0 0 0 0 0 0 0 127 0" result="hardAlpha"/>
<feOffset dy="2.9156"/>
<feGaussianBlur stdDeviation="1.4578"/>
<feComposite in2="hardAlpha" operator="arithmetic" k2="-1" k3="1"/>
<feColorMatrix type="matrix" values="0 0 0 0 1 0 0 0 0 1 0 0 0 0 1 0 0 0 0.15 0"/>
<feBlend mode="normal" in2="shape" result="effect2_innerShadow_7512_421"/>
<feColorMatrix in="SourceAlpha" type="matrix" values="0 0 0 0 0 0 0 0 0 0 0 0 0 0 0 0 0 0 127 0" result="hardAlpha"/>
<feOffset/>
<feGaussianBlur stdDeviation="24.7826"/>
<feComposite in2="hardAlpha" operator="arithmetic" k2="-1" k3="1"/>
<feColorMatrix type="matrix" values="0 0 0 0 1 0 0 0 0 1 0 0 0 0 1 0 0 0 0.05 0"/>
<feBlend mode="normal" in2="effect2_innerShadow_7512_421" result="effect3_innerShadow_7512_421"/>
</filter>
<linearGradient id="paint0_linear_7512_421" x1="64.8612" y1="59.3237" x2="64.8612" y2="66.1234" gradientUnits="userSpaceOnUse">
<stop stop-color="#B3DAF2"/>
<stop offset="1" stop-color="white"/>
</linearGradient>
<linearGradient id="paint1_linear_7512_421" x1="64.8612" y1="81.9893" x2="64.8612" y2="88.7889" gradientUnits="userSpaceOnUse">
<stop stop-color="#B3DAF2"/>
<stop offset="1" stop-color="white"/>
</linearGradient>
<linearGradient id="paint2_linear_7512_421" x1="76.2322" y1="54.7153" x2="76.2322" y2="75.1899" gradientUnits="userSpaceOnUse">
<stop stop-color="#B3DAF2"/>
<stop offset="1" stop-color="white"/>
</linearGradient>
<linearGradient id="paint3_linear_7512_421" x1="87.5654" y1="59.3237" x2="87.5654" y2="66.1234" gradientUnits="userSpaceOnUse">
<stop stop-color="#B3DAF2"/>
<stop offset="1" stop-color="white"/>
</linearGradient>
<linearGradient id="paint4_linear_7512_421" x1="85.2988" y1="81.9893" x2="85.2988" y2="84.2558" gradientUnits="userSpaceOnUse">
<stop stop-color="#B3DAF2"/>
<stop offset="1" stop-color="white"/>
</linearGradient>
<linearGradient id="paint5_linear_7512_421" x1="67.1282" y1="72.9233" x2="67.1282" y2="93.3979" gradientUnits="userSpaceOnUse">
<stop stop-color="#B3DAF2"/>
<stop offset="1" stop-color="white"/>
</linearGradient>
<linearGradient id="paint6_linear_7512_421" x1="78.4987" y1="72.9233" x2="78.4987" y2="79.723" gradientUnits="userSpaceOnUse">
<stop stop-color="#B3DAF2"/>
<stop offset="1" stop-color="white"/>
</linearGradient>
<linearGradient id="paint7_linear_7512_421" x1="87.6026" y1="77.4556" x2="87.6026" y2="93.397" gradientUnits="userSpaceOnUse">
<stop stop-color="#B3DAF2"/>
<stop offset="1" stop-color="white"/>
</linearGradient>
<linearGradient id="paint8_linear_7512_421" x1="92.1359" y1="86.5225" x2="92.1359" y2="93.3977" gradientUnits="userSpaceOnUse">
<stop stop-color="#B3DAF2"/>
<stop offset="1" stop-color="white"/>
</linearGradient>
<linearGradient id="paint9_linear_7512_421" x1="114.915" y1="77.0649" x2="114.915" y2="115.748" gradientUnits="userSpaceOnUse">
<stop stop-color="#B3DAF2"/>
<stop offset="1" stop-color="white"/>
</linearGradient>
<linearGradient id="paint10_linear_7512_421" x1="30.6726" y1="32.3647" x2="30.6726" y2="71.0473" gradientUnits="userSpaceOnUse">
<stop stop-color="#B3DAF2"/>
<stop offset="1" stop-color="white"/>
</linearGradient>
</defs>
</svg>
