<?xml version="1.0" encoding="UTF-8"?>
<svg width="78px" height="30px" viewBox="0 0 78 30" version="1.1" xmlns="http://www.w3.org/2000/svg" xmlns:xlink="http://www.w3.org/1999/xlink">
    <title>Group</title>
    <defs>
        <polygon id="path-1" points="0 0 31 0 31 29 0 29"></polygon>
    </defs>
    <g id="Symbols" stroke="none" stroke-width="1" fill="none" fill-rule="evenodd">
        <g id="logo" transform="translate(-1.000000, 0.000000)">
            <g id="Group" transform="translate(1.000000, 0.942050)">
                <g id="Group-42" transform="translate(0.000000, 0.057950)">
                    <mask id="mask-2" fill="white">
                        <use xlink:href="#path-1"></use>
                    </mask>
                    <g id="Clip-41"></g>
                    <polygon id="Fill-40" fill="#1D1D1B" mask="url(#mask-2)" points="31 29 0 29 0 22.6772479 24.683553 22.6772479 24.683553 17.6903386 0 17.6903386 0 11.3105525 24.683553 11.3105525 24.683553 6.32364329 0 6.32364329 0 0 31 0"></polygon>
                </g>
                <polygon id="Fill-43" fill="#BD1622" points="65.9786558 0.0871800036 65.9786558 6.41090103 41.6284844 6.41090103 41.6284844 11.3978715 65.9786558 11.3978715 65.9786558 17.7207014 41.6284844 17.7207014 41.6284844 22.7085631 65.9786558 22.7085631 65.9786558 29.0287194 35.0921519 29.0287194 35.0921519 0.0871800036"></polygon>
                <path d="M59.5729918,18.4389648 L59.5729918,12.4125977 L63.5100035,18.4389648 L64.5466246,18.4389648 L64.5466246,10.6186523 L63.5207457,10.6186523 L63.5207457,16.671875 L59.5729918,10.6186523 L58.5363707,10.6186523 L58.5363707,18.4389648 L59.5729918,18.4389648 Z M71.3464293,18.4389648 L71.3464293,17.5957031 L67.4094176,17.5957031 L67.4094176,14.8242188 L70.7985777,14.8242188 L70.7985777,13.980957 L67.4094176,13.980957 L67.4094176,11.4672852 L71.2927183,11.4672852 L71.2927183,10.6186523 L66.3781676,10.6186523 L66.3781676,18.4389648 L71.3464293,18.4389648 Z M74.880609,18.4389648 L76.5510191,12.7402344 L76.6745543,12.144043 L76.7980894,12.7402344 L78.4094176,18.4389648 L79.349359,18.4389648 L81.2453551,10.6186523 L80.208734,10.6186523 L78.9948668,15.9682617 L78.8283629,17.0209961 L78.6135191,16.0756836 L77.1042418,10.6186523 L76.2341246,10.6186523 L74.6872496,16.0756836 L74.4670348,17.0048828 L74.3166441,15.9736328 L73.0812926,10.6186523 L72.0500426,10.6186523 L73.9406676,18.4389648 L74.880609,18.4389648 Z M84.8708433,18.5463867 C85.6979918,18.5463867 86.3586363,18.3557129 86.8527769,17.9743652 C87.3469176,17.5930176 87.5939879,17.0854492 87.5939879,16.4516602 C87.5939879,16.0541992 87.5053648,15.7086589 87.3281187,15.4150391 C87.1508726,15.1214193 86.8787372,14.864502 86.5117125,14.6442871 C86.1446878,14.4240723 85.6362242,14.2226562 84.9863219,14.0400391 C84.3364195,13.8574219 83.8762958,13.6560059 83.6059508,13.435791 C83.3356057,13.2155762 83.2004332,12.9461263 83.2004332,12.6274414 C83.2004332,12.2299805 83.3427672,11.9193522 83.6274351,11.6955566 C83.9121031,11.4717611 84.3086689,11.3598633 84.8171324,11.3598633 C85.364984,11.3598633 85.7893004,11.4950358 86.0900816,11.7653809 C86.3908629,12.0357259 86.5412535,12.4072266 86.5412535,12.8798828 L86.5412535,12.8798828 L87.5778746,12.8798828 C87.5778746,12.4466146 87.4623961,12.0473633 87.2314391,11.6821289 C87.000482,11.3168945 86.6746357,11.0304362 86.2539,10.8227539 C85.8331643,10.6150716 85.3542418,10.5112305 84.8171324,10.5112305 C84.029372,10.5112305 83.3893167,10.7126465 82.8969664,11.1154785 C82.4046161,11.5183105 82.158441,12.0276693 82.158441,12.6435547 C82.158441,13.1878255 82.359857,13.6452637 82.7626891,14.0158691 C83.1655211,14.3864746 83.8091572,14.6988932 84.6935973,14.953125 C85.3990009,15.1572266 85.8859801,15.3640137 86.1545348,15.5734863 C86.4230894,15.782959 86.5573668,16.0792643 86.5573668,16.4624023 C86.5573668,16.8455404 86.4123473,17.148112 86.1223082,17.3701172 C85.8322691,17.5921224 85.4151142,17.703125 84.8708433,17.703125 C84.2871845,17.703125 83.8207945,17.5661621 83.4716734,17.2922363 C83.1225523,17.0183105 82.9479918,16.6450195 82.9479918,16.1723633 L82.9479918,16.1723633 L81.9113707,16.1723633 C81.9113707,16.6271159 82.0375914,17.0335286 82.2900328,17.3916016 C82.5424742,17.7496745 82.9014423,18.0316569 83.3669371,18.2375488 C83.8324319,18.4434408 84.333734,18.5463867 84.8708433,18.5463867 Z" id="NEWS" fill="#131415" fill-rule="nonzero" transform="translate(73.065179, 14.528809) rotate(-90.000000) translate(-73.065179, -14.528809) "></path>
            </g>
        </g>
    </g>
</svg>
