<svg id="Layer_1" data-name="Layer 1" xmlns="http://www.w3.org/2000/svg" viewBox="0 0 108.15 25.45"><path d="M14.35,7.89A8,8,0,0,0,12.44,2.3,6.73,6.73,0,0,0,7.18.17a6.67,6.67,0,0,0-5.25,2.1A8.22,8.22,0,0,0,0,7.89H4.78c0-.28,0-.49,0-.63a5.18,5.18,0,0,1,.61-2.41A1.9,1.9,0,0,1,7.18,4,1.89,1.89,0,0,1,9.06,5a6.65,6.65,0,0,1,.51,2.89V9.66l-.51.21L6.33,11A22.26,22.26,0,0,0,4,12.28a8.06,8.06,0,0,0-2.19,1.81A10.58,10.58,0,0,0,.59,16.42,8.7,8.7,0,0,0,0,19.67a6.35,6.35,0,0,0,1.39,4,4.19,4.19,0,0,0,3.39,1.77,4.14,4.14,0,0,0,1.48-.25,4.35,4.35,0,0,0,1.12-.59,4.22,4.22,0,0,0,.9-1,9.35,9.35,0,0,0,.68-1c.16-.29.36-.68.61-1.19l.63,3.68H15A24.57,24.57,0,0,1,14.35,19ZM9.57,19.61l-.1.13c-.23.33-.44.58-.6.77a2.85,2.85,0,0,1-.72.6,1.8,1.8,0,0,1-1,.31c-1.59,0-2.39-1-2.39-3.06A3.89,3.89,0,0,1,5,17a4.79,4.79,0,0,1,.57-1.11A5.42,5.42,0,0,1,6.48,15c.39-.32.72-.58,1-.77l1.11-.72c.46-.29.79-.51,1-.65Zm32.77-15c0,.47,0,.84,0,1.11V25.1H37.59V6.86c0-.43,0-.75,0-1a4.44,4.44,0,0,0-.12-.8,1.17,1.17,0,0,0-.36-.66,1.09,1.09,0,0,0-.69-.21,4,4,0,0,0-1.46.29,6.81,6.81,0,0,0-1.13.58c-.27.19-.6.45-1,.78V25.1H28v-19a4.2,4.2,0,0,0-.07-.7,2,2,0,0,0-.18-.65,1,1,0,0,0-.35-.38,1,1,0,0,0-.6-.17,5.64,5.64,0,0,0-3.59,1.55V25.1H18.46V.52h4.78V3.3a7.58,7.58,0,0,1,6-3.13A3.53,3.53,0,0,1,31.73,1a4.4,4.4,0,0,1,1.08,2.47A9,9,0,0,1,35.35,1,6.56,6.56,0,0,1,38.79.17,3.87,3.87,0,0,1,39.86.3a3.81,3.81,0,0,1,.83.3,1.72,1.72,0,0,1,.63.52,7.84,7.84,0,0,1,.45.66,2.75,2.75,0,0,1,.3.85c.08.37.14.68.18.92s.06.6.09,1.08M60.29,7.89A8,8,0,0,0,58.38,2.3,6.72,6.72,0,0,0,53.12.17a6.7,6.7,0,0,0-5.25,2.1,8.22,8.22,0,0,0-1.93,5.62h4.79a5.28,5.28,0,0,1,0-.63,5.07,5.07,0,0,1,.6-2.41A2.25,2.25,0,0,1,55,5a6.82,6.82,0,0,1,.5,2.89V9.66l-.5.21q-1.95.8-2.73,1.14A21.18,21.18,0,0,0,50,12.28a8.06,8.06,0,0,0-2.19,1.81,10.58,10.58,0,0,0-1.24,2.33,8.7,8.7,0,0,0-.59,3.25,6.36,6.36,0,0,0,1.4,4A4.21,4.21,0,0,0,52.2,25.2a4.35,4.35,0,0,0,1.12-.59,4.22,4.22,0,0,0,.9-1,9.35,9.35,0,0,0,.68-1c.16-.29.36-.68.61-1.19l.63,3.68h4.77A24.57,24.57,0,0,1,60.29,19ZM55.51,19.61a.48.48,0,0,0-.09.13c-.24.33-.44.58-.6.77a2.85,2.85,0,0,1-.72.6,1.83,1.83,0,0,1-1,.31c-1.6,0-2.39-1-2.39-3.06A3.89,3.89,0,0,1,51,17a4.79,4.79,0,0,1,.56-1.11,5.15,5.15,0,0,1,.9-.94c.38-.32.71-.58,1-.77l1.1-.72c.46-.29.79-.51,1-.65ZM69.77.52h3.58V4.21H69.77V18.55a4.58,4.58,0,0,0,.39,2.17,1.65,1.65,0,0,0,1.59.7,10.11,10.11,0,0,0,1.6-.2v4a24.69,24.69,0,0,1-2.95.23A5.13,5.13,0,0,1,66.3,24,6.86,6.86,0,0,1,65,19.5V4.21H62.59V.52h7.18ZM90.58,7.89A8,8,0,0,0,88.67,2.3a7.59,7.59,0,0,0-10.51,0,8.22,8.22,0,0,0-1.93,5.62H81c0-.28,0-.49,0-.63a5.18,5.18,0,0,1,.61-2.41A2.24,2.24,0,0,1,85.29,5a6.65,6.65,0,0,1,.51,2.89V9.66l-.51.21L82.56,11a22.26,22.26,0,0,0-2.31,1.27,8.06,8.06,0,0,0-2.19,1.81,10.58,10.58,0,0,0-1.24,2.33,8.7,8.7,0,0,0-.59,3.25,6.35,6.35,0,0,0,1.39,4A4.19,4.19,0,0,0,81,25.45a4.14,4.14,0,0,0,1.48-.25,4.35,4.35,0,0,0,1.12-.59,4.22,4.22,0,0,0,.9-1,11,11,0,0,0,.68-1c.16-.29.36-.68.61-1.19l.63,3.68H91.2A24.57,24.57,0,0,1,90.58,19ZM85.8,19.61a.48.48,0,0,0-.09.13c-.24.33-.44.58-.6.77a3,3,0,0,1-.72.6,1.85,1.85,0,0,1-1,.31c-1.6,0-2.4-1-2.39-3.06A3.89,3.89,0,0,1,81.26,17a4.79,4.79,0,0,1,.56-1.11,5.15,5.15,0,0,1,.9-.94c.38-.32.71-.58,1-.77l1.1-.72c.46-.29.79-.51,1-.65Zm22.06-2.75a7.56,7.56,0,0,1,.29,2.1,6,6,0,0,1-2,4.82A7.77,7.77,0,0,1,101,25.45a6.35,6.35,0,0,1-4.74-1.81A9.38,9.38,0,0,1,93.8,19l3.58-1.23q1.29,3.69,3.59,3.69a2.36,2.36,0,0,0,1.77-.65,2.51,2.51,0,0,0,.62-1.81,3.8,3.8,0,0,0-1.19-2.85l-4.79-3.68a13.12,13.12,0,0,1-1.34-1,9.39,9.39,0,0,1-1.1-1.2,4.88,4.88,0,0,1-.85-1.59,6,6,0,0,1-.29-1.93,6,6,0,0,1,2-4.82A7.77,7.77,0,0,1,101,.17a7.35,7.35,0,0,1,2.8.51,5.84,5.84,0,0,1,2.11,1.43,9,9,0,0,1,1.4,2.05,12.44,12.44,0,0,1,.87,2.5l-3.59,1.23c-.18-.48-.35-.9-.52-1.25a8,8,0,0,0-.71-1.15,3.2,3.2,0,0,0-1-1A2.7,2.7,0,0,0,101,4.21a2.32,2.32,0,0,0-1.76.64,2.5,2.5,0,0,0-.63,1.82,2.61,2.61,0,0,0,1.2,2.07l4.78,3.69a13.28,13.28,0,0,1,1.37,1.26,11,11,0,0,1,1.11,1.4,6,6,0,0,1,.82,1.77"/></svg>