<svg xmlns="http://www.w3.org/2000/svg" xmlns:xlink="http://www.w3.org/1999/xlink" viewBox="0 0 430.02 159.78"><defs><style>.cls-1{fill:#00276d;}.cls-2{fill:url(#linear-gradient);}</style><linearGradient id="linear-gradient" y1="132.9" x2="161.4" y2="132.9" gradientUnits="userSpaceOnUse"><stop offset="0" stop-color="#ff4fe4"/><stop offset="1" stop-color="#10c9f1"/></linearGradient></defs><g id="Layer_2" data-name="Layer 2"><g id="Layer_1-2" data-name="Layer 1"><path class="cls-1" d="M14.77,68c0-23.31,17.74-40.6,41.55-40.6S97.86,44.7,97.86,68,80,108.59,56.32,108.59,14.77,91.17,14.77,68Zm62,0c0-12.44-8.5-21.06-20.48-21.06S35.83,55.55,35.83,68s8.51,21.07,20.49,21.07S76.8,80.44,76.8,68Z"/><path class="cls-1" d="M222.76,58.22v48.2H202V61.65C202,51.39,198,46,190.43,46c-9.28,0-14.78,6.83-14.78,18.86v41.57H155.39V61.65C155.39,51.39,151.48,46,144,46c-9.39,0-15,6.83-15,18.86v41.57H108.26V29.57h14.51l3.9,9.52a29.54,29.54,0,0,1,22.92-11.35c9.78,0,17.86,4.57,22.32,12.3a29,29,0,0,1,23.78-12.3C211.6,27.74,222.76,40.21,222.76,58.22Z"/><path class="cls-1" d="M305.37,59.84v46.58H284.59V63.21c0-11.62-4.42-17.22-13.41-17.22-10.71,0-17.24,7.67-17.24,20v40.39H233.16V29.57h14.25l4.05,9.5a33,33,0,0,1,25.47-11.33C294.44,27.74,305.37,40.38,305.37,59.84Z"/><path class="cls-1" d="M315.76,29.57h20.78v76.85H315.76ZM315.8,0h20.7V19.32H315.8Z"/><path class="cls-1" d="M346.93,68c0-23.31,17.74-40.6,41.55-40.6S430,44.7,430,68s-17.85,40.6-41.54,40.6S346.93,91.17,346.93,68Zm62,0c0-12.44-8.5-21.06-20.48-21.06S368,55.55,368,68s8.5,21.07,20.48,21.07S409,80.44,409,68Z"/><path class="cls-2" d="M161.4,120.1c-16.53,24.13-44.46,39.68-76.75,39.68C46.43,159.78,14.35,138,0,106c12.14,17.62,32.64,29,56.33,29A68.46,68.46,0,0,0,99.55,120.1Z"/></g></g></svg>