<svg width="63" height="62" viewBox="0 0 63 62" fill="none" xmlns="http://www.w3.org/2000/svg">
<g clip-path="url(#clip0_7397_974)">
<path d="M0.580036 40.9364C1.35718 41.9527 3.52024 42.2195 5.10044 42.2957C6.79721 42.3973 7.39302 42.9054 7.45778 44.5315C7.57435 46.9324 7.8075 50.9086 8.15721 53.2968C8.46807 55.431 10.3073 57.0316 12.4963 57.1459C15.1904 57.2603 17.9104 57.3238 20.6045 57.2095C22.3013 57.1459 22.9489 57.8319 23.0784 59.3817V59.3944C23.182 60.3345 23.9721 61.0459 24.9436 61.0459H32.1969C32.9093 61.0459 33.4922 60.4869 33.4922 59.7756V1.47967C33.4922 0.831797 33 0.272847 32.3524 0.222034C22.379 -0.705314 12.4963 4.49037 8.11835 13.6114C6.16254 17.7273 4.76367 22.1354 6.29206 26.6705C7.32826 29.7828 6.65473 32.1457 4.33624 34.4577C3.66272 35.1576 -0.792923 39.1719 0.580036 40.9364Z" fill="url(#paint0_linear_7397_974)"/>
<path d="M15.5315 20.6432L18.3953 20.1109C18.4897 20.1009 18.578 20.06 18.6459 19.9948C18.7138 19.9296 18.7574 19.8439 18.7696 19.7514C18.9239 18.721 19.2035 17.7123 19.6024 16.7471C19.6711 16.5527 19.6257 16.3647 19.4807 16.2453L17.2503 14.3652C17.1644 14.2978 17.1068 14.2018 17.0884 14.0955C17.07 13.9891 17.0921 13.8798 17.1505 13.7885L18.0818 12.2298C18.1339 12.1332 18.2195 12.0582 18.3231 12.0184C18.4267 11.9785 18.5415 11.9764 18.6465 12.0125L21.3886 12.9716C21.4781 13.0048 21.5762 13.0089 21.6683 12.9833C21.7604 12.9576 21.8417 12.9037 21.9002 12.8294C22.5694 12.0308 23.3164 11.2981 24.1306 10.6418C24.21 10.5873 24.2683 10.5081 24.2961 10.417C24.3238 10.3259 24.3193 10.2283 24.2834 10.14L23.3211 7.44311C23.2524 7.22588 23.3211 6.98579 23.5192 6.88924L25.115 5.98222C25.2119 5.92577 25.3256 5.90391 25.4371 5.92034C25.5485 5.93678 25.6507 5.99051 25.7263 6.07242L27.6135 8.25994C27.6733 8.33256 27.756 8.38369 27.8485 8.4053C27.9411 8.4269 28.0384 8.41778 28.1251 8.37935C29.1139 8.00173 30.1408 7.72793 31.1884 7.56252C31.3866 7.53966 31.5316 7.39738 31.586 7.20302L32.0977 4.3943C32.1208 4.29062 32.1799 4.19805 32.265 4.13246C32.3501 4.06687 32.4558 4.03234 32.5639 4.03479H34.4045C34.6493 4.03479 34.8397 4.17707 34.8708 4.3943L35.4057 7.20302C35.429 7.39738 35.6039 7.53966 35.8033 7.56252C36.8577 7.73529 37.8809 7.99698 38.8666 8.37935C38.9536 8.41649 39.0505 8.42492 39.1427 8.40339C39.235 8.38185 39.3176 8.33151 39.3782 8.25994L41.2628 6.07369C41.3335 5.99206 41.4318 5.93805 41.5397 5.9215C41.6477 5.90494 41.7581 5.92694 41.8508 5.98349L43.4699 6.89051C43.6681 6.98833 43.7367 7.22715 43.6681 7.44438L42.6824 10.1413C42.6581 10.23 42.6587 10.3235 42.6843 10.4119C42.7098 10.5002 42.7593 10.5801 42.8275 10.6431C43.6584 11.2909 44.4161 12.0243 45.0877 12.8306C45.2094 12.9729 45.4011 13.0479 45.5993 12.9729L48.3413 12.0138C48.5628 11.9388 48.7843 12.0367 48.906 12.231L49.8373 13.7897C49.8847 13.8856 49.8985 13.9941 49.8765 14.0984C49.8545 14.2027 49.7979 14.297 49.7156 14.3665L47.5085 16.2466C47.3634 16.366 47.3181 16.554 47.3867 16.7483C47.7636 17.7191 48.035 18.7261 48.1962 19.7527C48.2068 19.8445 48.2488 19.93 48.3154 19.9953C48.382 20.0607 48.4692 20.1019 48.5628 20.1122L51.4344 20.6445C51.5425 20.6663 51.6399 20.7233 51.7107 20.8064C51.7815 20.8895 51.8215 20.9936 51.8242 21.1018V22.8993C51.8242 23.1471 51.6558 23.3338 51.4344 23.3567L48.5628 23.8889C48.3724 23.9118 48.2196 24.0833 48.1962 24.2713C48.0279 25.3054 47.7533 26.3165 47.3867 27.2757C47.3524 27.3627 47.3456 27.4579 47.3673 27.5488C47.3891 27.6397 47.4382 27.722 47.5085 27.7851L49.7156 29.6359C49.7979 29.7054 49.8545 29.7997 49.8765 29.904C49.8985 30.0083 49.8847 30.1168 49.8373 30.2127L48.906 31.7714C48.7843 31.9657 48.5628 32.0636 48.3413 31.9886L45.5993 31.0295C45.5097 30.9963 45.4116 30.9923 45.3195 31.0179C45.2274 31.0435 45.1461 31.0974 45.0877 31.1718C44.4244 31.9923 43.6659 32.7341 42.8275 33.3822C42.7592 33.4418 42.7093 33.519 42.6837 33.605C42.658 33.6911 42.6576 33.7824 42.6824 33.8687L43.6681 36.5809C43.7033 36.6816 43.7029 36.7911 43.667 36.8915C43.631 36.992 43.5616 37.0777 43.4699 37.1348L41.8508 38.0265C41.7571 38.082 41.6462 38.1026 41.5383 38.0846C41.4304 38.0667 41.3327 38.0114 41.2628 37.9287L39.3756 35.7641C39.3139 35.694 39.2313 35.6447 39.1395 35.6233C39.0477 35.6019 38.9513 35.6093 38.864 35.6447C37.8783 36.0042 36.8551 36.2658 35.8008 36.4386C35.6026 36.4615 35.4264 36.6038 35.4031 36.7981L34.8682 39.6068C34.8518 39.7161 34.7955 39.8158 34.7097 39.8874C34.6239 39.9589 34.5145 39.9974 34.4019 39.9956H32.5613C32.4505 39.9912 32.3443 39.9506 32.2598 39.8801C32.1753 39.8097 32.1173 39.7134 32.0951 39.6068L31.5834 36.7981C31.5303 36.6038 31.3853 36.4615 31.1858 36.4386C30.1412 36.2708 29.1154 36.0049 28.1225 35.6447C28.0355 35.6081 27.9388 35.6 27.8466 35.6215C27.7545 35.643 27.6719 35.693 27.6109 35.7641L25.7238 37.9287C25.5787 38.0939 25.3041 38.146 25.1124 38.0265L23.5167 37.1348C23.3185 37.0154 23.2498 36.7753 23.3185 36.5809L24.2809 33.8687C24.3174 33.7829 24.3222 33.6872 24.2942 33.5983C24.2663 33.5094 24.2075 33.4329 24.128 33.3822C23.306 32.7258 22.5582 31.9848 21.8976 31.1718C21.7758 31.0295 21.5842 30.9546 21.386 31.0295L18.6439 31.9886C18.5389 32.0247 18.4241 32.0226 18.3205 31.9828C18.2169 31.9429 18.1313 31.8679 18.0792 31.7714L17.1479 30.2127C17.0895 30.1213 17.0674 30.012 17.0858 29.9057C17.1042 29.7993 17.1618 29.7033 17.2477 29.6359L19.4781 27.7851C19.5485 27.7221 19.5978 27.6398 19.6195 27.5489C19.6412 27.4579 19.6344 27.3627 19.5998 27.2757C19.2022 26.3165 18.9354 25.3054 18.767 24.2713C18.7359 24.0846 18.5908 23.9118 18.3927 23.8889L15.5289 23.3567C15.3074 23.3338 15.1623 23.1471 15.1623 22.8993V21.1018C15.1609 20.9954 15.1968 20.8918 15.264 20.8083C15.3312 20.7248 15.4256 20.6665 15.5315 20.6432ZM25.4984 13.1596L27.6368 15.257C29.081 14.049 30.8777 13.3198 32.7699 13.1736V10.2086C30.0764 10.3614 27.5144 11.4011 25.4984 13.1596ZM33.4952 26.9543C34.8306 26.9536 36.1111 26.433 37.0554 25.5069C37.9997 24.5808 38.5304 23.3249 38.5311 22.0152C38.5311 19.289 36.2748 17.0761 33.4952 17.0761C30.7156 17.0761 28.4593 19.289 28.4593 22.0152C28.46 23.3249 28.9908 24.5808 29.935 25.5069C30.8793 26.433 32.1598 26.9536 33.4952 26.9543ZM34.2283 10.2086V13.1736C36.1177 13.3218 37.9113 14.0508 39.3536 15.257L41.4843 13.1673C39.4715 11.4122 36.9165 10.3704 34.2283 10.2086ZM42.5153 14.1861L40.3885 16.272C41.6165 17.6858 42.3585 19.4435 42.5088 21.2949H45.5021C45.3459 18.6642 44.2942 16.161 42.5153 14.1861ZM42.4998 29.8354C44.2864 27.864 45.3436 25.3597 45.5008 22.7266H42.5088C42.3592 24.5823 41.6157 26.3442 40.3846 27.7609L42.4998 29.8354ZM41.4687 30.8466L39.3536 28.7721C37.9094 29.9801 36.1128 30.7093 34.2206 30.8555V33.79C36.905 33.6348 39.4581 32.598 41.4687 30.8466ZM32.7621 33.79V30.8555C30.8727 30.7073 29.0792 29.9782 27.6368 28.7721L25.5139 30.8542C27.5247 32.6042 30.0782 33.6385 32.7621 33.79ZM24.4751 29.843L26.6019 27.7571C25.3723 26.3412 24.6299 24.5807 24.4803 22.7266H21.465C21.621 25.3639 22.6819 27.8719 24.4751 29.843ZM24.4816 21.2949C24.6327 19.4418 25.376 17.6828 26.6058 16.2682L24.4674 14.1708C22.6774 16.1462 21.62 18.6565 21.4663 21.2949H24.4816Z" fill="url(#paint1_linear_7397_974)"/>
</g>
<defs>
<linearGradient id="paint0_linear_7397_974" x1="16.9055" y1="0.115723" x2="16.9055" y2="57.0249" gradientUnits="userSpaceOnUse">
<stop stop-color="white"/>
<stop offset="1" stop-color="white" stop-opacity="0"/>
</linearGradient>
<linearGradient id="paint1_linear_7397_974" x1="33.4933" y1="4.03467" x2="33.4933" y2="37.6224" gradientUnits="userSpaceOnUse">
<stop stop-color="#11E7ED"/>
<stop offset="1" stop-color="#11E7ED" stop-opacity="0"/>
</linearGradient>
<clipPath id="clip0_7397_974">
<rect width="62.1717" height="60.9763" fill="white" transform="matrix(-1 0 0 1 62.4902 0.100098)"/>
</clipPath>
</defs>
</svg>
