<svg width="71" height="67" viewBox="0 0 71 67" fill="none" xmlns="http://www.w3.org/2000/svg">
<g clip-path="url(#clip0_7397_979)">
<path d="M23.2089 22.9443V29.0817C24.782 31.5499 26.2796 31.4991 27.7063 29.0817V22.9443C27.7063 19.5884 30.4706 16.8597 33.8704 16.8597C37.2688 16.8597 40.0346 19.5884 40.0346 22.9443V29.0817C41.337 31.5525 42.8407 31.4964 44.532 29.0817V22.9443C44.532 17.1407 39.7486 12.4204 33.8704 12.4204C27.9909 12.4204 23.2089 17.1407 23.2089 22.9443Z" fill="white"/>
<path d="M18.6862 33.019V51.8151C18.6862 53.9902 20.4713 55.7523 22.6735 55.7523H45.066C47.2681 55.7523 49.0547 53.9902 49.0547 51.8151V33.019C49.0547 30.8438 47.2681 29.0817 45.066 29.0817L44.532 29.0817H40.0346H27.7063H23.2089L22.6735 29.0817C20.4713 29.0817 18.6862 30.8438 18.6862 33.019Z" fill="url(#paint0_linear_7397_979)"/>
<path d="M29.3798 39.9674C29.3798 41.6099 30.2844 43.0424 31.6285 43.8087L30.0167 48.4858H37.7264L36.1132 43.8087C37.4573 43.0424 38.3633 41.6099 38.3633 39.9674C38.3633 37.5197 36.3513 35.5337 33.8716 35.5337C31.3904 35.5337 29.3798 37.5197 29.3798 39.9674Z" fill="url(#paint1_linear_7397_979)"/>
<path d="M9.34652 40.158C10.2661 44.5634 12.3993 48.6432 15.5155 51.9567C15.7272 52.1818 15.714 52.5338 15.4859 52.7429C15.3774 52.8423 15.2399 52.8914 15.1026 52.8914C14.9513 52.8914 14.8004 52.8316 14.6894 52.7137C11.433 49.2511 9.20379 44.987 8.24261 40.3826C8.17977 40.0817 8.37604 39.7875 8.68079 39.7253C8.98597 39.6636 9.28382 39.8572 9.34652 40.158Z" fill="url(#paint2_linear_7397_979)"/>
<path d="M3.56392 54.9935C2.75941 55.465 2.21978 56.3314 2.21978 57.3217C2.21978 58.8181 3.44838 60.0309 4.96442 60.0309C6.48045 60.0309 7.70904 58.8181 7.70904 57.3217C7.70904 55.8266 6.48045 54.6139 4.96442 54.6139C4.45296 54.6139 3.97392 54.7515 3.56392 54.9935ZM64.0642 58.5706C62.6384 58.5706 61.483 59.711 61.483 61.1184C61.483 62.5245 62.6384 63.6649 64.0642 63.6649C65.4887 63.6649 66.644 62.5245 66.644 61.1184C66.644 59.711 65.4887 58.5706 64.0642 58.5706ZM65.5056 20.7544C65.5056 21.0548 65.5577 21.3427 65.6549 21.6097C66.01 22.5958 66.9652 23.3023 68.0868 23.3023C69.5126 23.3023 70.668 22.1619 70.668 20.7544C70.668 19.347 69.5126 18.2065 68.0868 18.2065C66.6609 18.2065 65.5056 19.347 65.5056 20.7544ZM50.4256 3.83024C50.1889 4.1835 50.0522 4.60768 50.0522 5.06246C50.0522 6.29884 51.0681 7.30158 52.3206 7.30158C53.5732 7.30158 54.589 6.29884 54.589 5.06246C54.589 3.82468 53.5732 2.82194 52.3206 2.82194C51.5288 2.82194 50.8314 3.22248 50.4256 3.83024Z" fill="url(#paint3_linear_7397_979)"/>
<path d="M1.93982 40.0284C1.85063 40.0796 1.753 40.1041 1.65676 40.1041C1.46275 40.1041 1.27396 40.005 1.16927 39.8276C1.0126 39.5621 1.10375 39.2216 1.37258 39.0668L4.18738 37.4487C4.12736 36.6896 4.09524 35.9168 4.09524 35.1446C4.09524 30.9338 4.97752 26.8789 6.71419 23.0812L1.66522 21.0383C1.37723 20.9217 1.23943 20.5967 1.35751 20.3124C1.47558 20.0283 1.8047 19.8926 2.0927 20.0087L7.19647 22.0738C8.60894 19.268 10.4559 16.7184 12.6973 14.4822L11.0064 12.9663C10.7759 12.7598 10.7589 12.4079 10.9681 12.1805C11.1773 11.9531 11.5338 11.936 11.7641 12.1428L13.508 13.7062C16.4399 10.9934 19.9408 8.86646 23.7025 7.51478L22.1547 5.29889L19.1957 6.80591C18.9191 6.94694 18.5791 6.83985 18.4364 6.56656C18.2936 6.29356 18.4021 5.95797 18.6789 5.81708L22.0786 4.08559C22.3307 3.95708 22.64 4.03371 22.801 4.26402L24.8109 7.1415C27.7313 6.22221 30.7762 5.75506 33.8693 5.75506C36.2275 5.75506 38.5694 6.03112 40.8375 6.56921L45.7298 0.704648C45.913 0.485186 46.2344 0.437205 46.475 0.593805L52.1376 4.27765C52.3976 4.44677 52.4693 4.79168 52.2981 5.04827C52.1269 5.30487 51.7773 5.37579 51.5174 5.20668L46.2779 1.7982L42.0399 6.87796C46.6712 8.17985 50.9294 10.5881 54.4302 13.8891L56.3963 12.0229C56.6207 11.8099 56.9775 11.8168 57.1932 12.0382C57.409 12.2596 57.402 12.6118 57.1777 12.8247L55.2304 14.6732C57.5568 17.0362 59.4444 19.7347 60.8511 22.7075L66.4549 20.738C66.748 20.6354 67.0705 20.786 67.1749 21.0755C67.2793 21.365 67.1263 21.6832 66.8331 21.7862L61.3101 23.7272C62.8573 27.3412 63.6429 31.1789 63.6429 35.1446C63.6429 35.7453 63.6235 36.3478 63.5872 36.9413L67.6321 39.3451C67.8988 39.5037 67.9848 39.8455 67.8241 40.1086C67.7183 40.2821 67.5319 40.3782 67.3407 40.3782C67.2418 40.3782 67.1415 40.3523 67.0505 40.2983L63.4847 38.1794C63.0982 41.909 62.0086 45.4736 60.2413 48.7937L62.4311 52.046C62.5521 52.2259 62.5569 52.4587 62.4431 52.6433L59.3707 57.6229L63.057 59.8552C63.3223 60.0159 63.4054 60.3584 63.2427 60.6203C63.1363 60.7913 62.9513 60.8858 62.7616 60.8858C62.6612 60.8858 62.5593 60.8592 62.4675 60.8034L58.3023 58.2812C58.0377 58.1209 57.9542 57.7795 58.1156 57.5176L61.2942 52.3668L59.6274 49.8914C56.7721 54.7322 52.4951 58.7425 47.4535 61.3008L51.1485 65.7779C51.3452 66.0162 51.3089 66.3665 51.0675 66.5606C50.8263 66.7548 50.4712 66.719 50.2747 66.4807L46.413 61.8016C42.4754 63.6132 38.2583 64.534 33.869 64.534C29.482 64.534 25.2644 63.6132 21.3244 61.8017L17.4621 66.4808C17.3506 66.6158 17.1885 66.6858 17.0247 66.6858C16.8996 66.6858 16.7737 66.6449 16.6691 66.5609C16.4278 66.3668 16.3916 66.0164 16.5881 65.7782L20.2849 61.2998C15.989 59.1217 12.2628 55.9216 9.4794 52.0055C6.66784 48.0497 4.89002 43.4547 4.30869 38.6667L1.93982 40.0284ZM8.24149 22.4968L10.5434 23.4281C11.7949 21.004 13.4149 18.8047 15.3691 16.8777L13.5325 15.2311C11.3798 17.3721 9.60282 19.8116 8.24149 22.4968ZM33.869 6.86766C31.0079 6.86766 28.19 7.28281 25.4806 8.10057L26.9639 10.2243C29.204 9.62095 31.5248 9.3154 33.869 9.3154C35.3335 9.3154 36.8041 9.43654 38.2456 9.67561L40.0388 7.52619C38.0243 7.08907 35.9531 6.86766 33.869 6.86766ZM54.418 15.4443L52.631 17.1405C54.6012 19.1411 56.2138 21.4139 57.434 23.9082L59.785 23.082C58.4357 20.2582 56.6333 17.6936 54.418 15.4443ZM62.5158 35.1446C62.5158 31.3071 61.7511 27.5949 60.2461 24.1011L57.9043 24.9242C59.2759 28.0559 59.9917 31.383 60.0328 34.829L62.492 36.2905C62.5073 35.9097 62.5158 35.5268 62.5158 35.1446ZM33.869 63.4215C37.9963 63.4215 41.9653 62.5771 45.6788 60.9122L44.0543 58.9439C40.8277 60.2912 37.4034 60.9739 33.869 60.9739C30.3333 60.9739 26.9089 60.2912 23.6836 58.9439L22.0586 60.9125C25.7745 62.5769 29.7438 63.4215 33.869 63.4215ZM21.014 60.4164L23.0793 57.9145C23.2396 57.7204 23.5118 57.6562 23.7442 57.7573C26.9401 59.1533 30.3465 59.8612 33.869 59.8612C37.3901 59.8612 40.7967 59.1533 43.994 57.7573C44.2264 57.6559 44.4986 57.7203 44.659 57.9147L46.7253 60.4183C51.8354 57.8798 56.1462 53.795 58.9289 48.8539L57.3611 46.5255C56.6547 47.9425 55.8171 49.2995 54.8593 50.5681C54.7487 50.7149 54.5789 50.792 54.407 50.792C54.2899 50.792 54.1718 50.7562 54.0707 50.6818C53.8212 50.4983 53.7696 50.1498 53.9556 49.9034C55.0655 48.4329 56.01 46.8403 56.7625 45.1699C57.5843 43.3452 58.1785 41.4214 58.5286 39.4515C58.5824 39.1489 58.8742 38.9471 59.1811 38.9998C59.4877 39.0529 59.6925 39.3412 59.6389 39.6439C59.2908 41.6015 58.7095 43.5148 57.9151 45.3379L59.527 47.7318C61.1398 44.5377 62.1086 41.1157 62.4122 37.5417L59.1807 35.6212C59.0113 35.5205 58.9077 35.3399 58.9077 35.1446C58.9077 31.7147 58.2113 28.4053 56.8395 25.2984L52.52 26.8166C52.4576 26.8384 52.3937 26.8489 52.3309 26.8489C52.0993 26.8489 51.8822 26.7069 51.8 26.4791C51.6956 26.1896 51.8486 25.8714 52.1418 25.7684L56.3659 24.2839C55.1242 21.7772 53.4668 19.5065 51.4323 17.5278C51.3239 17.4224 51.2633 17.2783 51.2642 17.1281C51.2652 16.9781 51.3275 16.8347 51.4372 16.7305L53.6149 14.6634C50.1329 11.3914 45.8779 9.03558 41.2533 7.82117L38.9074 10.633C38.7777 10.7885 38.5728 10.8629 38.3719 10.8267C36.8922 10.5624 35.3773 10.4282 33.8692 10.4282C31.494 10.4282 29.1444 10.7557 26.8856 11.402C26.8337 11.4167 26.7809 11.4239 26.7287 11.4239C26.5467 11.4239 26.3717 11.3366 26.2648 11.1833L24.3655 8.46412C20.6698 9.74862 17.2245 11.8088 14.3448 14.4563L16.5699 16.4513C16.6858 16.5551 16.7525 16.7017 16.7545 16.8561C16.7565 17.0105 16.6932 17.1589 16.5801 17.2654C14.5461 19.1819 12.8698 21.3954 11.5901 23.8516L15.9031 25.5968C16.1911 25.7133 16.3289 26.0382 16.2108 26.3225C16.1215 26.5377 15.9111 26.6679 15.6891 26.6679C15.6179 26.6679 15.5455 26.6544 15.4755 26.6262L11.0974 24.8548C9.5931 28.0894 8.82903 31.548 8.82903 35.1445C8.82903 35.3408 8.83184 35.5358 8.83593 35.7323C8.84016 35.9344 8.73307 36.1229 8.55611 36.2245L5.37583 38.0528C6.3666 47.5916 12.3169 56.0972 21.014 60.4164ZM5.27368 36.8242L7.7037 35.4272C7.70257 35.3331 7.70201 35.2389 7.70201 35.1446C7.70201 31.4018 8.49384 27.8014 10.0535 24.4324L7.75766 23.5034C6.0765 27.1669 5.22226 31.0801 5.22226 35.1446C5.22226 35.7062 5.24057 36.2678 5.27368 36.8242ZM0.29586 50.0956L2.98273 45.4963C3.13828 45.2301 3.4829 45.1387 3.75244 45.2923C4.02211 45.4458 4.11468 45.7859 3.95913 46.0521L1.43711 50.3693L4.72123 55.8276C4.88016 56.0917 4.7921 56.4331 4.52454 56.59C4.43423 56.6428 4.33517 56.6682 4.23726 56.6682C4.04494 56.6682 3.85754 56.5709 3.75216 56.3958L0.299522 50.6576C0.195404 50.4847 0.193993 50.2698 0.29586 50.0956Z" fill="url(#paint4_linear_7397_979)"/>
</g>
<defs>
<linearGradient id="paint0_linear_7397_979" x1="33.8704" y1="29.0822" x2="33.8704" y2="53.9927" gradientUnits="userSpaceOnUse">
<stop stop-color="white"/>
<stop offset="1" stop-color="white" stop-opacity="0"/>
</linearGradient>
<linearGradient id="paint1_linear_7397_979" x1="33.8715" y1="35.5337" x2="33.8715" y2="48.4858" gradientUnits="userSpaceOnUse">
<stop stop-color="#30E0E5"/>
<stop offset="1" stop-color="#30E0E5" stop-opacity="0"/>
</linearGradient>
<linearGradient id="paint2_linear_7397_979" x1="11.9485" y1="39.7139" x2="11.9485" y2="52.8914" gradientUnits="userSpaceOnUse">
<stop stop-color="#30E0E5"/>
<stop offset="1" stop-color="#30E0E5" stop-opacity="0"/>
</linearGradient>
<linearGradient id="paint3_linear_7397_979" x1="34.0627" y1="0.501953" x2="34.0627" y2="66.6858" gradientUnits="userSpaceOnUse">
<stop stop-color="#30E0E5"/>
<stop offset="1" stop-color="#30E0E5" stop-opacity="0"/>
</linearGradient>
<linearGradient id="paint4_linear_7397_979" x1="34.0627" y1="0.501953" x2="34.0627" y2="66.6858" gradientUnits="userSpaceOnUse">
<stop stop-color="#30E0E5"/>
<stop offset="1" stop-color="#30E0E5" stop-opacity="0"/>
</linearGradient>
<clipPath id="clip0_7397_979">
<rect width="70.4475" height="66.1838" fill="white" transform="matrix(-1 0 0 1 70.668 0.501953)"/>
</clipPath>
</defs>
</svg>
