<svg width="60" height="61" viewBox="0 0 60 61" fill="none" xmlns="http://www.w3.org/2000/svg">
  <g clip-path="url(#clip0_7397_940)">
    <path
      d="M21.212 55.543C21.586 55.543 21.8892 55.2168 21.8892 54.8145C21.8892 54.4121 21.586 54.0859 21.212 54.0859C20.8381 54.0859 20.5349 54.4121 20.5349 54.8145C20.5349 55.2168 20.8381 55.543 21.212 55.543Z"
    />
    <path
      d="M31.6752 54.1094H31.281V54.8563H31.6752C31.9689 54.8563 32.116 54.7177 32.116 54.4848C32.116 54.2519 31.9689 54.1094 31.6752 54.1094Z"
    />
    <path d="M24.4958 43.7975H27.599L26.0722 38.6875L24.4958 43.7975Z" />
    <path
      d="M13.3947 39.366C13.3947 38.3388 12.6314 37.5625 11.5477 37.5625H9.18335V41.1441H11.4985C12.7792 41.1441 13.3947 40.2927 13.3947 39.3664V39.366Z"
    />
    <path
      d="M15.5374 18.4979C15.5374 16.3686 14.4045 14.2656 11.843 14.2656H9.18335V22.7564H11.843C14.3798 22.7564 15.5374 20.6272 15.5374 18.4983V18.4979Z"
    />
    <path
      d="M55.1009 7.46711C56.5505 7.46711 57.7256 6.27211 57.7256 4.79801C57.7256 3.3239 56.5505 2.12891 55.1009 2.12891C53.6514 2.12891 52.4763 3.3239 52.4763 4.79801C52.4763 6.27211 53.6514 7.46711 55.1009 7.46711Z"
    />
    <path
      d="M57.7249 19.2788V27.4391H52.5531V10.6635C47.1448 4.35206 39.1828 0.363281 30.3046 0.363281C22.1059 0.363281 14.6886 3.76484 9.34234 9.25572H11.6467C17.5088 9.25572 20.8579 12.8374 20.8579 18.5228C20.8579 24.2083 17.4348 27.7648 11.5978 27.7648H4.06154V16.6476C1.98009 20.7582 0.804443 25.4211 0.804443 30.3635C0.804443 35.3059 1.98009 39.9688 4.06154 44.0797V32.8028H11.5978C16.7939 32.8028 18.6659 36.0337 18.6659 39.4152C18.6659 42.7968 16.6957 45.8018 11.2529 45.8018H9.18374V51.3084C14.5415 56.8948 22.0243 60.3637 30.3039 60.3637C46.5963 60.3637 59.8041 46.932 59.8041 30.3635C59.8041 26.4483 59.0661 22.7081 57.7245 19.2791L57.7249 19.2788ZM25.9847 2.12807C27.434 2.12807 28.6093 3.32286 28.6093 4.79717C28.6093 6.27148 27.4344 7.46627 25.9847 7.46627C24.5349 7.46627 23.3601 6.27148 23.3601 4.79717C23.3601 3.32286 24.5349 2.12807 25.9847 2.12807ZM28.5704 9.25572V27.7648H23.3986V9.25572H28.5704ZM18.6428 55.5422C18.8827 55.5422 19.0763 55.4365 19.2341 55.2435L19.6857 55.6589C19.442 55.9685 19.0694 56.1396 18.6074 56.1396C17.8121 56.1396 17.2281 55.5896 17.2281 54.8133C17.2281 54.037 17.8121 53.487 18.6074 53.487C19.0694 53.487 19.442 53.658 19.6857 53.9677L19.2341 54.383C19.0767 54.1901 18.883 54.0844 18.6428 54.0844C18.2309 54.0844 17.9441 54.3756 17.9441 54.8129C17.9441 55.2502 18.2305 55.5414 18.6428 55.5414V55.5422ZM21.2112 56.1396C20.4086 56.1396 19.8177 55.5786 19.8177 54.8133C19.8177 54.0479 20.409 53.487 21.2112 53.487C22.0135 53.487 22.6048 54.0479 22.6048 54.8133C22.6048 55.5786 22.0135 56.1396 21.2112 56.1396ZM25.3634 56.0887H24.7794L23.6723 54.7299V56.0887H22.9774V53.5386H23.5614L24.6685 54.8975V53.5386H25.3634V56.0887ZM27.8317 54.0957H26.574V54.6567H27.6812V55.2142H26.574V56.0883H25.8646V53.5382H27.8313V54.0957H27.8317ZM30.178 56.0887H28.1647V53.5386H30.1314V54.0961H28.8668V54.5259H29.9809V55.065H28.8668V55.5313H30.178V56.0887ZM29.6171 51.3115L28.7548 48.2815H23.2627L22.3519 51.3115H17.1057L23.5833 32.8024H28.5827L34.8629 51.3115H29.6167H29.6171ZM32.1232 56.0887L31.6681 55.4111H31.2813V56.0887H30.5718V53.5386H31.7182C32.4026 53.5386 32.8322 53.8992 32.8322 54.4821C32.8322 54.8575 32.6532 55.1343 32.3414 55.2874L32.8823 56.0887H32.1228H32.1232ZM35.2363 56.0887H33.223V53.5386H35.1897V54.0961H33.9251V54.5259H35.0392V55.065H33.9251V55.5313H35.2363V56.0887ZM38.016 56.0887H37.4321L36.3249 54.7299V56.0887H35.6301V53.5386H36.2141L37.3212 54.8975V53.5386H38.016V56.0887ZM39.8038 55.5422C40.044 55.5422 40.2372 55.4365 40.3951 55.2435L40.8466 55.6589C40.6029 55.9685 40.2303 56.1396 39.7683 56.1396C38.973 56.1396 38.3891 55.5896 38.3891 54.8133C38.3891 54.037 38.973 53.487 39.7683 53.487C40.2307 53.487 40.6029 53.658 40.8466 53.9677L40.3951 54.383C40.2376 54.1901 40.044 54.0844 39.8038 54.0844C39.3919 54.0844 39.1051 54.3756 39.1051 54.8129C39.1051 55.2502 39.3919 55.5414 39.8038 55.5414V55.5422ZM43.1748 56.0887H41.1615V53.5386H43.1282V54.0961H41.8637V54.5259H42.9777V55.065H41.8637V55.5313H43.1748V56.0887ZM43.2156 45.2001V51.3115H38.093V45.2001L31.7636 32.8024H37.8216L40.6541 39.3397L43.5605 32.8024H49.6193L43.2156 45.2001ZM49.8403 24.6091C47.6488 26.6628 44.8409 28.04 41.491 28.04C35.7529 28.04 31.7628 24.0078 31.7628 18.5228C31.7628 13.0378 35.9989 8.9304 41.6142 8.9304C44.6188 8.9304 47.1063 10.0825 48.6824 11.4601L45.4807 15.3922C44.4221 14.5152 43.0424 13.9147 41.5649 13.9147C38.8067 13.9147 37.009 15.968 37.009 18.4476C37.009 20.9273 38.6347 23.0816 41.5649 23.0816C43.166 23.0816 44.5941 22.4298 45.2347 21.8793V20.7769H41.5649V16.3689H49.8399V24.6095L49.8403 24.6091Z"
    />
  </g>
  <defs>
    <clipPath id="clip0_7397_940">
      <rect width="59" height="60" transform="translate(0.804443 0.363281)" />
    </clipPath>
  </defs>
</svg>
