<svg width="246" height="246" viewBox="0 0 246 246" fill="none" xmlns="http://www.w3.org/2000/svg">
  <g clip-path="url(#clip0_7301_2601)">
    <path
      d="M85.3376 225.941C86.8923 225.941 88.1527 224.608 88.1527 222.963C88.1527 221.318 86.8923 219.984 85.3376 219.984C83.7828 219.984 82.5225 221.318 82.5225 222.963C82.5225 224.608 83.7828 225.941 85.3376 225.941Z"
      fill="white" />
    <path
      d="M128.845 220.074H127.206V223.128H128.845C130.066 223.128 130.677 222.561 130.677 221.609C130.677 220.657 130.066 220.074 128.845 220.074Z"
      fill="white" />
    <path d="M98.9902 177.925H111.891L105.544 157.035L98.9902 177.925Z" fill="white" />
    <path
      d="M52.8473 159.807C52.8473 155.607 49.6737 152.434 45.1685 152.434H35.3389V167.076H44.9637C50.2882 167.076 52.8473 163.595 52.8473 159.808V159.807Z"
      fill="white" />
    <path
      d="M61.7571 74.4973C61.7571 65.7927 57.0471 57.1953 46.398 57.1953H35.3408V91.9065H46.398C56.9447 91.9065 61.7571 83.2019 61.7571 74.4989V74.4973Z"
      fill="white" />
    <path
      d="M226.23 29.4032C232.256 29.4032 237.141 24.5179 237.141 18.4916C237.141 12.4653 232.256 7.58008 226.23 7.58008C220.204 7.58008 215.318 12.4653 215.318 18.4916C215.318 24.5179 220.204 29.4032 226.23 29.4032Z"
      fill="white" />
    <path
      d="M237.14 77.6916V111.052H215.639V42.4715C193.155 16.6698 160.054 0.363281 123.144 0.363281C89.0583 0.363281 58.2217 14.2692 35.9953 36.7164H45.5754C69.9463 36.7164 83.8698 51.3585 83.8698 74.6012C83.8698 97.8438 69.639 112.383 45.3721 112.383H14.041V66.9352C5.38763 83.7395 0.5 102.802 0.5 123.007C0.5 143.212 5.38763 162.274 14.041 179.08V132.979H45.3721C66.9743 132.979 74.7571 146.187 74.7571 160.011C74.7571 173.836 66.5662 186.12 43.9381 186.12H35.336V208.632C57.6104 231.469 88.719 245.651 123.14 245.651C190.874 245.651 245.784 190.741 245.784 123.007C245.784 107.001 242.716 91.7111 237.139 77.6932L237.14 77.6916ZM105.184 7.5779C111.209 7.5779 116.096 12.4623 116.096 18.4894C116.096 24.5166 111.211 29.401 105.184 29.401C99.1568 29.401 94.2724 24.5166 94.2724 18.4894C94.2724 12.4623 99.1568 7.5779 105.184 7.5779ZM115.934 36.7164V112.383H94.4325V36.7164H115.934ZM74.6611 225.94C75.6581 225.94 76.4631 225.508 77.1193 224.719L78.9966 226.417C77.9835 227.683 76.4343 228.382 74.5138 228.382C71.2074 228.382 68.7796 226.134 68.7796 222.96C68.7796 219.787 71.2074 217.538 74.5138 217.538C76.4343 217.538 77.9835 218.237 78.9966 219.503L77.1193 221.201C76.4647 220.412 75.6597 219.98 74.6611 219.98C72.9486 219.98 71.7563 221.171 71.7563 222.959C71.7563 224.746 72.947 225.937 74.6611 225.937V225.94ZM85.339 228.382C82.0021 228.382 79.5455 226.089 79.5455 222.96C79.5455 219.831 82.0037 217.538 85.339 217.538C88.6742 217.538 91.1324 219.831 91.1324 222.96C91.1324 226.089 88.6742 228.382 85.339 228.382ZM102.601 228.174H100.173L95.5703 222.619V228.174H92.6816V217.749H95.1094L99.7122 223.304V217.749H102.601V228.174ZM112.863 220.027H107.634V222.32H112.237V224.599H107.634V228.173H104.685V217.748H112.861V220.027H112.863ZM122.617 228.174H114.247V217.749H122.424V220.028H117.166V221.785H121.798V223.989H117.166V225.895H122.617V228.174ZM120.285 208.645L116.7 196.257H93.8675L90.081 208.645H68.2707L95.2006 132.977H115.985L142.094 208.645H120.284H120.285ZM130.704 228.174L128.812 225.404H127.204V228.174H124.254V217.749H129.02C131.866 217.749 133.652 219.223 133.652 221.606C133.652 223.141 132.908 224.272 131.611 224.898L133.86 228.174H130.702H130.704ZM143.646 228.174H135.276V217.749H143.453V220.028H138.195V221.785H142.827V223.989H138.195V225.895H143.646V228.174ZM155.203 228.174H152.775L148.172 222.619V228.174H145.284V217.749H147.711L152.314 223.304V217.749H155.203V228.174ZM162.635 225.94C163.634 225.94 164.437 225.508 165.093 224.719L166.971 226.417C165.958 227.683 164.408 228.382 162.488 228.382C159.182 228.382 156.754 226.134 156.754 222.96C156.754 219.787 159.182 217.538 162.488 217.538C164.41 217.538 165.958 218.237 166.971 219.503L165.093 221.201C164.439 220.412 163.634 219.98 162.635 219.98C160.923 219.98 159.73 221.171 159.73 222.959C159.73 224.746 160.923 225.937 162.635 225.937V225.94ZM176.65 228.174H168.28V217.749H176.456V220.028H171.199V221.785H175.831V223.989H171.199V225.895H176.65V228.174ZM176.82 183.661V208.645H155.523V183.661L129.209 132.977H154.395L166.171 159.703L178.254 132.977H203.442L176.82 183.661ZM204.361 99.4827C195.25 107.878 183.577 113.509 169.65 113.509C145.794 113.509 129.206 97.0244 129.206 74.6012C129.206 52.1779 146.817 35.3865 170.162 35.3865C182.653 35.3865 192.995 40.0965 199.547 45.7283L186.236 61.8028C181.835 58.2178 176.099 55.7628 169.957 55.7628C158.49 55.7628 151.016 64.1569 151.016 74.2939C151.016 84.4309 157.775 93.2379 169.957 93.2379C176.613 93.2379 182.551 90.5732 185.214 88.323V83.8163H169.957V65.7958H204.359V99.4842L204.361 99.4827Z"
      fill="white" />
  </g>
  <defs>
    <clipPath id="clip0_7301_2601">
      <rect width="245.286" height="245.286" fill="white" transform="translate(0.5 0.363281)" />
    </clipPath>
  </defs>
</svg>
