<svg width="53" height="66" viewBox="0 0 60 70" fill="none" xmlns="http://www.w3.org/2000/svg">
  <path
    d="M22.3068 29.4635L22.3068 29.4633C22.2288 28.8542 22.0704 28.2353 21.833 27.6075L22.4725 27.2298L22.7972 27.038L22.5999 26.7165L21.7974 25.4096L21.6067 25.099L21.2929 25.2844L20.8154 25.5664L20.7609 25.4778L21.2275 25.2023L21.5523 25.0104L21.3549 24.689L20.5521 23.3815L20.3614 23.0709L20.0475 23.2563L19.3288 23.6808C18.8486 23.2083 18.3351 22.8128 17.7898 22.4951L17.789 22.4947C17.1648 22.133 16.525 21.8821 15.8684 21.7461L15.8682 21.7461C15.2114 21.6105 14.5528 21.5937 13.8914 21.6989C13.2286 21.8034 12.5935 22.0361 11.9913 22.3918C11.184 22.8686 10.5652 23.4488 10.152 24.1403L10.1517 24.1409C9.75018 24.8158 9.52369 25.5335 9.48326 26.2884L9.46708 26.5904L9.75973 26.6669L11.2501 27.0565C11.3704 27.091 11.495 27.1139 11.6241 27.123L11.6267 27.1232C11.825 27.1358 12.0091 27.0743 12.1725 26.9778C12.3731 26.8593 12.5221 26.6836 12.5921 26.4556C12.6311 26.3288 12.6785 26.1838 12.7348 26.0199C12.7804 25.8911 12.8567 25.7449 12.9702 25.5825L12.6662 25.3702M22.3068 29.4635L17.1868 35.1502L17.2088 35.5203C17.2088 35.5203 17.2087 35.5204 17.2087 35.5204C16.3481 35.5715 15.5162 35.392 14.722 34.9865L14.4421 34.8436L14.5373 34.5441L15.0447 32.9462C15.0752 32.8296 15.1217 32.7121 15.1942 32.6132L15.1942 32.6131L15.198 32.6081C15.2728 32.5096 15.3678 32.4321 15.4752 32.3687C15.6212 32.2824 15.786 32.2351 15.9615 32.2448C16.0831 32.2503 16.2039 32.2688 16.3249 32.2964C16.4383 32.3208 16.5599 32.351 16.6876 32.3842C16.7771 32.4074 16.8809 32.4196 17.0038 32.4164L17.0072 32.4163C17.1194 32.4145 17.2592 32.3938 17.4269 32.3483L17.4291 32.3477C17.5761 32.3088 17.7515 32.2332 17.959 32.1106C18.3756 31.8645 18.6269 31.5152 18.7275 31.0404L18.7275 31.0401C18.811 30.6476 18.7731 30.1481 18.5796 29.5294L16.6578 30.6645C16.5181 30.747 16.3688 30.8023 16.2114 30.8246C16.068 30.845 15.9246 30.8421 15.7841 30.8116C15.6473 30.7818 15.5221 30.7295 15.4085 30.6555L15.4084 30.6556L15.4 30.6498C15.2925 30.5755 15.1945 30.4809 15.1206 30.3606L15.4366 30.1666L15.1206 30.3606L14.6734 29.6322L14.476 29.3108L14.8008 29.1189L17.5937 27.4693L17.5393 27.3807L14.638 29.0944C14.4982 29.1769 14.3489 29.2322 14.1915 29.2545C14.0481 29.2748 13.9047 29.272 13.7642 29.2415C13.6295 29.2122 13.5012 29.1602 13.3857 29.0834L13.384 29.0823C13.2726 29.0074 13.1737 28.9117 13.0996 28.7911L12.6521 28.0622L12.4547 27.7408L12.7795 27.549L16.0651 25.6083C15.6388 25.2507 15.2335 25.0362 14.852 24.9429C14.3726 24.8263 13.9313 24.8915 13.5089 25.1409C13.2243 25.3091 13.0564 25.4595 12.9697 25.5831L12.6662 25.3702M22.3068 29.4635C22.3973 30.1731 22.3658 30.852 22.2102 31.4953L22.3068 29.4635ZM12.6662 25.3702C12.7957 25.1855 13.0137 25.0028 13.3204 24.8217C13.8265 24.5227 14.3671 24.4433 14.94 24.5828L11.9839 26.6586C12.1123 26.5827 12.1972 26.4786 12.2377 26.3467C12.2782 26.2148 12.3272 26.0652 12.3847 25.8978C12.4438 25.7303 12.5378 25.554 12.6662 25.3702ZM21.3604 33.2874L21.3602 33.2876L22.2101 31.4954C22.0541 32.1424 21.7698 32.7397 21.3604 33.2874ZM31.4451 19.815C26.6966 12.0816 16.4488 9.58294 8.55688 14.2443C0.669094 18.9032 -1.86915 28.945 2.87671 36.674C7.62525 44.4074 17.873 46.906 25.765 42.2447C33.6527 37.5858 36.191 27.544 31.4451 19.815Z"
    fill="url(#paint0_linear_18_50)" />
  <path
    d="M22.3068 29.4635L22.3068 29.4633C22.2288 28.8542 22.0704 28.2353 21.833 27.6075L22.4725 27.2298L22.7972 27.038L22.5999 26.7165L21.7974 25.4096L21.6067 25.099L21.2929 25.2844L20.8154 25.5664L20.7609 25.4778L21.2275 25.2023L21.5523 25.0104L21.3549 24.689L20.5521 23.3815L20.3614 23.0709L20.0475 23.2563L19.3288 23.6808C18.8486 23.2083 18.3351 22.8128 17.7898 22.4951L17.789 22.4947C17.1648 22.133 16.525 21.8821 15.8684 21.7461L15.8682 21.7461C15.2114 21.6105 14.5528 21.5937 13.8914 21.6989C13.2286 21.8034 12.5935 22.0361 11.9913 22.3918C11.184 22.8686 10.5652 23.4488 10.152 24.1403L10.1517 24.1409C9.75018 24.8158 9.52369 25.5335 9.48326 26.2884L9.46708 26.5904L9.75973 26.6669L11.2501 27.0565C11.3704 27.091 11.495 27.1139 11.6241 27.123L11.6267 27.1232C11.825 27.1358 12.0091 27.0743 12.1725 26.9778C12.3731 26.8593 12.5221 26.6836 12.5921 26.4556C12.6311 26.3288 12.6785 26.1838 12.7348 26.0199C12.7804 25.8911 12.8567 25.7449 12.9702 25.5825L12.6662 25.3702M22.3068 29.4635L17.1868 35.1502L17.2088 35.5203C17.2088 35.5203 17.2087 35.5204 17.2087 35.5204C16.3481 35.5715 15.5162 35.392 14.722 34.9865L14.4421 34.8436L14.5373 34.5441L15.0447 32.9462C15.0752 32.8296 15.1217 32.7121 15.1942 32.6132L15.1942 32.6131L15.198 32.6081C15.2728 32.5096 15.3678 32.4321 15.4752 32.3687C15.6212 32.2824 15.786 32.2351 15.9615 32.2448C16.0831 32.2503 16.2039 32.2688 16.3249 32.2964C16.4383 32.3208 16.5599 32.351 16.6876 32.3842C16.7771 32.4074 16.8809 32.4196 17.0038 32.4164L17.0072 32.4163C17.1194 32.4145 17.2592 32.3938 17.4269 32.3483L17.4291 32.3477C17.5761 32.3088 17.7515 32.2332 17.959 32.1106C18.3756 31.8645 18.6269 31.5152 18.7275 31.0404L18.7275 31.0401C18.811 30.6476 18.7731 30.1481 18.5796 29.5294L16.6578 30.6645C16.5181 30.747 16.3688 30.8023 16.2114 30.8246C16.068 30.845 15.9246 30.8421 15.7841 30.8116C15.6473 30.7818 15.5221 30.7295 15.4085 30.6555L15.4084 30.6556L15.4 30.6498C15.2925 30.5755 15.1945 30.4809 15.1206 30.3606L15.4366 30.1666L15.1206 30.3606L14.6734 29.6322L14.476 29.3108L14.8008 29.1189L17.5937 27.4693L17.5393 27.3807L14.638 29.0944C14.4982 29.1769 14.3489 29.2322 14.1915 29.2545C14.0481 29.2748 13.9047 29.272 13.7642 29.2415C13.6295 29.2122 13.5012 29.1602 13.3857 29.0834L13.384 29.0823C13.2726 29.0074 13.1737 28.9117 13.0996 28.7911L12.6521 28.0622L12.4547 27.7408L12.7795 27.549L16.0651 25.6083C15.6388 25.2507 15.2335 25.0362 14.852 24.9429C14.3726 24.8263 13.9313 24.8915 13.5089 25.1409C13.2243 25.3091 13.0564 25.4595 12.9697 25.5831L12.6662 25.3702M22.3068 29.4635C22.3973 30.1731 22.3658 30.852 22.2102 31.4953L22.3068 29.4635ZM12.6662 25.3702C12.7957 25.1855 13.0137 25.0028 13.3204 24.8217C13.8265 24.5227 14.3671 24.4433 14.94 24.5828L11.9839 26.6586C12.1123 26.5827 12.1972 26.4786 12.2377 26.3467C12.2782 26.2148 12.3272 26.0652 12.3847 25.8978C12.4438 25.7303 12.5378 25.554 12.6662 25.3702ZM21.3604 33.2874L21.3602 33.2876L22.2101 31.4954C22.0541 32.1424 21.7698 32.7397 21.3604 33.2874ZM31.4451 19.815C26.6966 12.0816 16.4488 9.58294 8.55688 14.2443C0.669094 18.9032 -1.86915 28.945 2.87671 36.674C7.62525 44.4074 17.873 46.906 25.765 42.2447C33.6527 37.5858 36.191 27.544 31.4451 19.815Z"
    fill="url(#paint1_linear_18_50)" />
  <path
    d="M22.3068 29.4635L22.3068 29.4633C22.2288 28.8542 22.0704 28.2353 21.833 27.6075L22.4725 27.2298L22.7972 27.038L22.5999 26.7165L21.7974 25.4096L21.6067 25.099L21.2929 25.2844L20.8154 25.5664L20.7609 25.4778L21.2275 25.2023L21.5523 25.0104L21.3549 24.689L20.5521 23.3815L20.3614 23.0709L20.0475 23.2563L19.3288 23.6808C18.8486 23.2083 18.3351 22.8128 17.7898 22.4951L17.789 22.4947C17.1648 22.133 16.525 21.8821 15.8684 21.7461L15.8682 21.7461C15.2114 21.6105 14.5528 21.5937 13.8914 21.6989C13.2286 21.8034 12.5935 22.0361 11.9913 22.3918C11.184 22.8686 10.5652 23.4488 10.152 24.1403L10.1517 24.1409C9.75018 24.8158 9.52369 25.5335 9.48326 26.2884L9.46708 26.5904L9.75973 26.6669L11.2501 27.0565C11.3704 27.091 11.495 27.1139 11.6241 27.123L11.6267 27.1232C11.825 27.1358 12.0091 27.0743 12.1725 26.9778C12.3731 26.8593 12.5221 26.6836 12.5921 26.4556C12.6311 26.3288 12.6785 26.1838 12.7348 26.0199C12.7804 25.8911 12.8567 25.7449 12.9702 25.5825L12.6662 25.3702M22.3068 29.4635L17.1868 35.1502L17.2088 35.5203C17.2088 35.5203 17.2087 35.5204 17.2087 35.5204C16.3481 35.5715 15.5162 35.392 14.722 34.9865L14.4421 34.8436L14.5373 34.5441L15.0447 32.9462C15.0752 32.8296 15.1217 32.7121 15.1942 32.6132L15.1942 32.6131L15.198 32.6081C15.2728 32.5096 15.3678 32.4321 15.4752 32.3687C15.6212 32.2824 15.786 32.2351 15.9615 32.2448C16.0831 32.2503 16.2039 32.2688 16.3249 32.2964C16.4383 32.3208 16.5599 32.351 16.6876 32.3842C16.7771 32.4074 16.8809 32.4196 17.0038 32.4164L17.0072 32.4163C17.1194 32.4145 17.2592 32.3938 17.4269 32.3483L17.4291 32.3477C17.5761 32.3088 17.7515 32.2332 17.959 32.1106C18.3756 31.8645 18.6269 31.5152 18.7275 31.0404L18.7275 31.0401C18.811 30.6476 18.7731 30.1481 18.5796 29.5294L16.6578 30.6645C16.5181 30.747 16.3688 30.8023 16.2114 30.8246C16.068 30.845 15.9246 30.8421 15.7841 30.8116C15.6473 30.7818 15.5221 30.7295 15.4085 30.6555L15.4084 30.6556L15.4 30.6498C15.2925 30.5755 15.1945 30.4809 15.1206 30.3606L15.4366 30.1666L15.1206 30.3606L14.6734 29.6322L14.476 29.3108L14.8008 29.1189L17.5937 27.4693L17.5393 27.3807L14.638 29.0944C14.4982 29.1769 14.3489 29.2322 14.1915 29.2545C14.0481 29.2748 13.9047 29.272 13.7642 29.2415C13.6295 29.2122 13.5012 29.1602 13.3857 29.0834L13.384 29.0823C13.2726 29.0074 13.1737 28.9117 13.0996 28.7911L12.6521 28.0622L12.4547 27.7408L12.7795 27.549L16.0651 25.6083C15.6388 25.2507 15.2335 25.0362 14.852 24.9429C14.3726 24.8263 13.9313 24.8915 13.5089 25.1409C13.2243 25.3091 13.0564 25.4595 12.9697 25.5831L12.6662 25.3702M22.3068 29.4635C22.3973 30.1731 22.3658 30.852 22.2102 31.4953L22.3068 29.4635ZM12.6662 25.3702C12.7957 25.1855 13.0137 25.0028 13.3204 24.8217C13.8265 24.5227 14.3671 24.4433 14.94 24.5828L11.9839 26.6586C12.1123 26.5827 12.1972 26.4786 12.2377 26.3467C12.2782 26.2148 12.3272 26.0652 12.3847 25.8978C12.4438 25.7303 12.5378 25.554 12.6662 25.3702ZM21.3604 33.2874L21.3602 33.2876L22.2101 31.4954C22.0541 32.1424 21.7698 32.7397 21.3604 33.2874ZM31.4451 19.815C26.6966 12.0816 16.4488 9.58294 8.55688 14.2443C0.669094 18.9032 -1.86915 28.945 2.87671 36.674C7.62525 44.4074 17.873 46.906 25.765 42.2447C33.6527 37.5858 36.191 27.544 31.4451 19.815Z"
    stroke="url(#paint2_linear_18_50)" stroke-width="0.741553" />
  <path
    d="M26.7166 53.4748L26.7174 53.4759C26.8423 53.6503 27.0038 53.7902 27.1959 53.899L34.3541 57.9523L34.6714 58.132L34.8563 57.8178L35.662 56.4491L35.8219 56.1775L35.5795 55.9759C35.4532 55.8709 35.341 55.7543 35.2435 55.6267C35.1489 55.5031 35.0821 55.3811 35.0401 55.2601C34.9993 55.1427 34.9825 55.0232 34.9911 54.8959L34.9914 54.8911L34.9914 54.891C34.9972 54.7846 35.0334 54.6613 35.1163 54.5204L35.962 53.0837L37.0414 53.6949L37.3586 53.8746L37.5436 53.5604L37.9598 52.8533C38.119 52.5828 38.1734 52.2837 38.113 51.9749C38.0443 51.6176 37.7998 51.3594 37.4851 51.1812L37.1829 51.0101L37.9273 49.7455C38.2213 49.246 38.4259 48.7242 38.5363 48.1787L26.7166 53.4748ZM26.7166 53.4748C26.6012 53.3125 26.519 53.1354 26.4758 52.9447C26.4347 52.763 26.4263 52.5791 26.451 52.3955C26.4758 52.2116 26.5323 52.0402 26.6233 51.8855L27.1734 50.9511L27.3584 50.6369L27.6756 50.8165L31.4424 52.9495C31.6669 53.0766 31.8813 53.215 32.0867 53.3626M26.7166 53.4748L32.0867 53.3626M32.0867 53.3626C32.0889 53.3216 32.0918 53.2806 32.0954 53.2398L32.0955 53.2392C32.1287 52.8763 32.2491 52.5258 32.446 52.1913L32.931 51.3674L31.0533 50.3042C30.9211 50.2293 30.8046 50.1331 30.7126 50.0154C30.6257 49.9043 30.562 49.7811 30.5229 49.6487C30.4853 49.5215 30.4706 49.3921 30.4784 49.2645L30.4783 49.2645L30.4791 49.2549C30.4911 49.1171 30.5314 48.9848 30.604 48.8614L31.1152 47.993L31.3002 47.6788L31.6174 47.8585L34.1518 49.2936L34.9076 48.0096C35.1945 47.5223 35.2902 47.1482 35.2646 46.8679L35.2645 46.8669C35.243 46.6237 35.1141 46.4117 34.7917 46.2291C34.6185 46.131 34.4695 46.0952 34.3404 46.0986C34.1692 46.1035 33.9457 46.1395 33.6609 46.2194L33.6591 46.2199C33.2854 46.3227 32.9194 46.2979 32.5898 46.1112C32.3544 45.978 32.1661 45.7791 32.0137 45.5383L32.0067 45.5273L32.0006 45.5158L31.4078 44.415L31.2446 44.1119L31.5347 43.9267C31.8636 43.7167 32.2094 43.5397 32.571 43.3987C32.9409 43.2545 33.3261 43.1622 33.724 43.1259L33.7247 43.1259C34.1278 43.09 34.5413 43.1179 34.963 43.2117C35.3906 43.3053 35.8215 43.477 36.2534 43.7216C36.897 44.086 37.4118 44.5115 37.786 45.002C38.1525 45.4824 38.3996 45.9957 38.5226 46.5409L38.5226 46.5409C38.6439 47.0795 38.6486 47.6273 38.5363 48.1786L32.0867 53.3626ZM46.747 57.809C50.9657 50.6424 48.4651 41.4752 41.1502 37.3332C33.8313 33.1888 24.4758 35.6511 20.2545 42.822C16.0358 49.9885 18.5364 59.1557 25.8512 63.2977C33.1702 67.4421 42.5257 64.9798 46.747 57.809Z"
    fill="url(#paint3_linear_18_50)" stroke="url(#paint4_linear_18_50)" stroke-width="0.741553" />
  <mask id="path-3-inside-1_18_50" fill="white">
    <path fill-rule="evenodd" clip-rule="evenodd"
      d="M52.2947 15.1967C52.2947 7.1034 45.6051 0.54248 37.3532 0.54248C29.1013 0.54248 22.4118 7.1034 22.4118 15.1967C22.4118 23.2899 29.1013 29.8508 37.3532 29.8508C45.6051 29.8508 52.2947 23.2899 52.2947 15.1967ZM34.0823 19.6139C33.7406 19.2681 33.4816 18.8685 33.3053 18.4178C33.129 17.967 33.0415 17.4839 33.0414 16.9709C33.0414 16.6298 33.0852 16.3258 33.1727 16.0586C33.2615 15.7914 33.3843 15.5552 33.5412 15.3489C33.6979 15.1438 33.8828 14.9661 34.0944 14.8147C34.3071 14.6632 34.5358 14.5296 34.7802 14.4128C35.0258 14.297 35.2812 14.1944 35.5451 14.105C35.8101 14.0156 36.074 13.9333 36.3391 13.8582L36.0497 10.9806C35.8782 11.0284 35.7178 11.0857 35.5657 11.15C35.4149 11.2156 35.2726 11.2764 35.1401 11.3325C35.0075 11.3897 34.8873 11.4374 34.7766 11.4744C34.6659 11.5126 34.5674 11.5316 34.4786 11.5316C34.3472 11.5316 34.2329 11.5006 34.1357 11.4386C34.0397 11.3766 33.9448 11.2776 33.8512 11.1428L33.2225 10.2424C33.5205 9.96694 33.8841 9.7094 34.3133 9.46846C34.7438 9.22764 35.2557 9.0535 35.8515 8.94616L35.6861 7.34934H36.6284C36.8206 7.34934 36.9774 7.41028 37.099 7.53423C37.2205 7.65818 37.2886 7.79654 37.3057 7.95041L37.3968 8.86507C38.0352 8.86507 38.6029 8.96887 39.0991 9.17757C39.5953 9.38627 40.0123 9.65347 40.3516 9.97903C40.6896 10.3046 40.9474 10.6707 41.1237 11.0774C41.3 11.484 41.3888 11.9014 41.3888 12.3296C41.3888 12.9104 41.2903 13.3933 41.0946 13.7785C40.8999 14.1637 40.6447 14.4809 40.3309 14.7302C40.016 14.9794 39.6634 15.1774 39.2731 15.324C38.8816 15.4707 38.4876 15.5971 38.0912 15.7056L38.3964 18.7706C38.6445 18.705 38.8645 18.6227 39.0579 18.5225C39.2512 18.4235 39.4287 18.3246 39.5905 18.2268C39.7534 18.1302 39.9041 18.048 40.0416 17.98C40.179 17.9119 40.314 17.8786 40.4465 17.8786C40.573 17.8786 40.6934 17.9096 40.8052 17.9717C40.9183 18.0337 41.0083 18.1112 41.0739 18.2031L41.8679 19.3301C41.4715 19.6915 40.9851 20.0015 40.4087 20.258C39.8336 20.5144 39.2281 20.6944 38.5946 20.797L38.76 22.4666H37.8176C37.6255 22.4666 37.4686 22.4058 37.3471 22.2841C37.2256 22.1625 37.1575 22.0265 37.1404 21.875L37.0407 20.8613C36.4023 20.8137 35.8344 20.6789 35.3384 20.4607C34.8423 20.2412 34.4239 19.9597 34.0823 19.6139ZM38.6681 11.3504C38.7751 11.453 38.8541 11.5686 38.9041 11.695C38.9539 11.8226 38.9783 11.9562 38.9783 12.0969C38.9783 12.4153 38.8749 12.673 38.6682 12.8709C38.4615 13.0676 38.1904 13.2347 37.8536 13.3694L37.6068 10.921C37.8597 10.9593 38.0737 11.0141 38.2464 11.0868C38.4201 11.1609 38.5612 11.248 38.6681 11.3504ZM36.5699 16.1468L36.8337 18.8217C35.9254 18.6655 35.4707 18.1741 35.4707 17.3465C35.4707 17.0387 35.5717 16.7932 35.7723 16.6095C35.9729 16.4258 36.2392 16.272 36.5699 16.1468Z" />
  </mask>
  <path fill-rule="evenodd" clip-rule="evenodd"
    d="M52.2947 15.1967C52.2947 7.1034 45.6051 0.54248 37.3532 0.54248C29.1013 0.54248 22.4118 7.1034 22.4118 15.1967C22.4118 23.2899 29.1013 29.8508 37.3532 29.8508C45.6051 29.8508 52.2947 23.2899 52.2947 15.1967ZM34.0823 19.6139C33.7406 19.2681 33.4816 18.8685 33.3053 18.4178C33.129 17.967 33.0415 17.4839 33.0414 16.9709C33.0414 16.6298 33.0852 16.3258 33.1727 16.0586C33.2615 15.7914 33.3843 15.5552 33.5412 15.3489C33.6979 15.1438 33.8828 14.9661 34.0944 14.8147C34.3071 14.6632 34.5358 14.5296 34.7802 14.4128C35.0258 14.297 35.2812 14.1944 35.5451 14.105C35.8101 14.0156 36.074 13.9333 36.3391 13.8582L36.0497 10.9806C35.8782 11.0284 35.7178 11.0857 35.5657 11.15C35.4149 11.2156 35.2726 11.2764 35.1401 11.3325C35.0075 11.3897 34.8873 11.4374 34.7766 11.4744C34.6659 11.5126 34.5674 11.5316 34.4786 11.5316C34.3472 11.5316 34.2329 11.5006 34.1357 11.4386C34.0397 11.3766 33.9448 11.2776 33.8512 11.1428L33.2225 10.2424C33.5205 9.96694 33.8841 9.7094 34.3133 9.46846C34.7438 9.22764 35.2557 9.0535 35.8515 8.94616L35.6861 7.34934H36.6284C36.8206 7.34934 36.9774 7.41028 37.099 7.53423C37.2205 7.65818 37.2886 7.79654 37.3057 7.95041L37.3968 8.86507C38.0352 8.86507 38.6029 8.96887 39.0991 9.17757C39.5953 9.38627 40.0123 9.65347 40.3516 9.97903C40.6896 10.3046 40.9474 10.6707 41.1237 11.0774C41.3 11.484 41.3888 11.9014 41.3888 12.3296C41.3888 12.9104 41.2903 13.3933 41.0946 13.7785C40.8999 14.1637 40.6447 14.4809 40.3309 14.7302C40.016 14.9794 39.6634 15.1774 39.2731 15.324C38.8816 15.4707 38.4876 15.5971 38.0912 15.7056L38.3964 18.7706C38.6445 18.705 38.8645 18.6227 39.0579 18.5225C39.2512 18.4235 39.4287 18.3246 39.5905 18.2268C39.7534 18.1302 39.9041 18.048 40.0416 17.98C40.179 17.9119 40.314 17.8786 40.4465 17.8786C40.573 17.8786 40.6934 17.9096 40.8052 17.9717C40.9183 18.0337 41.0083 18.1112 41.0739 18.2031L41.8679 19.3301C41.4715 19.6915 40.9851 20.0015 40.4087 20.258C39.8336 20.5144 39.2281 20.6944 38.5946 20.797L38.76 22.4666H37.8176C37.6255 22.4666 37.4686 22.4058 37.3471 22.2841C37.2256 22.1625 37.1575 22.0265 37.1404 21.875L37.0407 20.8613C36.4023 20.8137 35.8344 20.6789 35.3384 20.4607C34.8423 20.2412 34.4239 19.9597 34.0823 19.6139ZM38.6681 11.3504C38.7751 11.453 38.8541 11.5686 38.9041 11.695C38.9539 11.8226 38.9783 11.9562 38.9783 12.0969C38.9783 12.4153 38.8749 12.673 38.6682 12.8709C38.4615 13.0676 38.1904 13.2347 37.8536 13.3694L37.6068 10.921C37.8597 10.9593 38.0737 11.0141 38.2464 11.0868C38.4201 11.1609 38.5612 11.248 38.6681 11.3504ZM36.5699 16.1468L36.8337 18.8217C35.9254 18.6655 35.4707 18.1741 35.4707 17.3465C35.4707 17.0387 35.5717 16.7932 35.7723 16.6095C35.9729 16.4258 36.2392 16.272 36.5699 16.1468Z"
    fill="url(#paint5_linear_18_50)" />
  <path
    d="M33.3053 18.4178L32.6147 18.6879L33.3053 18.4178ZM34.0823 19.6139L33.5547 20.1351V20.1351L34.0823 19.6139ZM33.0414 16.9709L32.2998 16.9711V16.9709H33.0414ZM33.1727 16.0586L32.468 15.8277L32.469 15.8247L33.1727 16.0586ZM33.5412 15.3489L32.9509 14.9L32.9519 14.8987L33.5412 15.3489ZM34.0944 14.8147L33.6627 14.2117L33.6644 14.2105L34.0944 14.8147ZM34.7802 14.4128L34.4603 13.7438L34.4641 13.742L34.7802 14.4128ZM35.5451 14.105L35.3071 13.4027L35.3081 13.4024L35.5451 14.105ZM36.3391 13.8582L37.0769 13.784L37.1391 14.4023L36.5412 14.5717L36.3391 13.8582ZM36.0497 10.9806L35.8508 10.2663L36.6994 10.0299L36.7875 10.9065L36.0497 10.9806ZM35.5657 11.15L35.27 10.47L35.2766 10.4671L35.5657 11.15ZM35.1401 11.3325L34.8461 10.6517L34.8512 10.6495L35.1401 11.3325ZM34.7766 11.4744L34.5345 10.7734L34.5415 10.7711L34.7766 11.4744ZM34.1357 11.4386L33.7369 12.0638L33.7332 12.0614L34.1357 11.4386ZM33.8512 11.1428L34.4592 10.7183L34.4603 10.7198L33.8512 11.1428ZM33.2225 10.2424L32.6145 10.667L32.2444 10.1369L32.7191 9.69797L33.2225 10.2424ZM34.3133 9.46846L33.9503 8.82183L33.9513 8.82126L34.3133 9.46846ZM35.8515 8.94616L36.5891 8.86978L36.6599 9.55399L35.983 9.67596L35.8515 8.94616ZM35.6861 7.34934L34.9485 7.42572L34.8638 6.60779H35.6861V7.34934ZM37.099 7.53423L37.6285 7.01508L37.6285 7.01508L37.099 7.53423ZM37.3057 7.95041L38.0427 7.86869L38.0436 7.87688L37.3057 7.95041ZM37.3968 8.86507V9.60662H36.7255L36.6589 8.9386L37.3968 8.86507ZM39.0991 9.17757L38.8116 9.86112H38.8116L39.0991 9.17757ZM40.3516 9.97903L40.865 9.44396L40.866 9.44491L40.3516 9.97903ZM41.1237 11.0774L41.8041 10.7824L41.8041 10.7824L41.1237 11.0774ZM41.0946 13.7785L40.4327 13.4441L40.4335 13.4425L41.0946 13.7785ZM40.3309 14.7302L40.7922 15.3108L40.7912 15.3116L40.3309 14.7302ZM39.2731 15.324L39.5339 16.0182L39.5332 16.0184L39.2731 15.324ZM38.0912 15.7056L37.3533 15.7791L37.2912 15.1558L37.8953 14.9904L38.0912 15.7056ZM38.3964 18.7706L38.5858 19.4875L37.7447 19.7098L37.6585 18.844L38.3964 18.7706ZM39.0579 18.5225L38.7169 17.864L38.7197 17.8626L39.0579 18.5225ZM39.5905 18.2268L39.2067 17.5922L39.2124 17.5888L39.5905 18.2268ZM40.0416 17.98L39.7127 17.3153L39.7127 17.3153L40.0416 17.98ZM40.8052 17.9717L40.4485 18.6218L40.4454 18.6201L40.8052 17.9717ZM41.0739 18.2031L41.6773 17.7719L41.6801 17.776L41.0739 18.2031ZM41.8679 19.3301L42.4741 18.903L42.8508 19.4376L42.3674 19.8782L41.8679 19.3301ZM40.4087 20.258L40.1068 19.5807L40.1073 19.5804L40.4087 20.258ZM38.5946 20.797L37.8567 20.8701L37.788 20.1764L38.4761 20.065L38.5946 20.797ZM38.76 22.4666L39.4979 22.3935L39.5786 23.2081H38.76V22.4666ZM37.3471 22.2841L37.8717 21.76L37.8717 21.76L37.3471 22.2841ZM37.1404 21.875L36.4035 21.9581L36.4024 21.9477L37.1404 21.875ZM37.0407 20.8613L37.0959 20.1218L37.7176 20.1682L37.7787 20.7887L37.0407 20.8613ZM35.3384 20.4607L35.0398 21.1395L35.0384 21.1388L35.3384 20.4607ZM38.9041 11.695L39.5938 11.4226L39.5949 11.4254L38.9041 11.695ZM38.6681 11.3504L39.1811 10.8149L39.1814 10.8152L38.6681 11.3504ZM38.6682 12.8709L39.1812 13.4065L39.1795 13.408L38.6682 12.8709ZM37.8536 13.3694L38.1289 14.0579L37.2145 14.4236L37.1157 13.4438L37.8536 13.3694ZM37.6068 10.921L36.869 10.9954L36.7732 10.0451L37.7176 10.1878L37.6068 10.921ZM38.2464 11.0868L38.534 10.4032L38.5375 10.4047L38.2464 11.0868ZM36.8337 18.8217L37.5717 18.7489L37.6672 19.7174L36.7081 19.5525L36.8337 18.8217ZM36.5699 16.1468L36.3074 15.4533L37.2128 15.1106L37.3079 16.074L36.5699 16.1468ZM35.7723 16.6095L35.2715 16.0626L35.2715 16.0626L35.7723 16.6095ZM37.3532 -0.199072C46.001 -0.199072 53.0362 6.68034 53.0362 15.1967H51.5531C51.5531 7.52645 45.2092 1.28403 37.3532 1.28403V-0.199072ZM21.6702 15.1967C21.6702 6.68034 28.7054 -0.199072 37.3532 -0.199072V1.28403C29.4972 1.28403 23.1533 7.52645 23.1533 15.1967H21.6702ZM37.3532 30.5924C28.7054 30.5924 21.6702 23.713 21.6702 15.1967H23.1533C23.1533 22.8669 29.4972 29.1093 37.3532 29.1093V30.5924ZM53.0362 15.1967C53.0362 23.713 46.001 30.5924 37.3532 30.5924V29.1093C45.2092 29.1093 51.5531 22.8669 51.5531 15.1967H53.0362ZM33.9959 18.1476C34.1356 18.5047 34.3392 18.8188 34.6098 19.0927L33.5547 20.1351C33.142 19.7173 32.8277 19.2323 32.6147 18.6879L33.9959 18.1476ZM33.7829 16.9707C33.783 17.3979 33.8556 17.7888 33.9959 18.1476L32.6147 18.6879C32.4025 18.1452 32.3 17.5699 32.2998 16.9711L33.7829 16.9707ZM33.8774 16.2894C33.8188 16.4683 33.7829 16.6922 33.7829 16.9709H32.2998C32.2998 16.5674 32.3515 16.1832 32.468 15.8277L33.8774 16.2894ZM34.1314 15.7979C34.0278 15.9341 33.9416 16.0963 33.8764 16.2924L32.469 15.8247C32.5814 15.4864 32.7408 15.1763 32.9509 14.9L34.1314 15.7979ZM34.526 15.4177C34.3723 15.5277 34.241 15.6544 34.1304 15.7992L32.9519 14.8987C33.1548 14.6332 33.3934 14.4045 33.6627 14.2117L34.526 15.4177ZM35.1001 15.0818C34.8919 15.1813 34.7004 15.2936 34.5243 15.4189L33.6644 14.2105C33.9139 14.0329 34.1796 13.878 34.4603 13.7438L35.1001 15.0818ZM35.783 14.8074C35.5447 14.8881 35.3155 14.9803 35.0963 15.0836L34.4641 13.742C34.7362 13.6137 35.0177 13.5007 35.3071 13.4027L35.783 14.8074ZM36.5412 14.5717C36.2887 14.6432 36.0365 14.7219 35.782 14.8077L35.3081 13.4024C35.5838 13.3094 35.8593 13.2234 36.1369 13.1448L36.5412 14.5717ZM36.7875 10.9065L37.0769 13.784L35.6012 13.9324L35.3119 11.0548L36.7875 10.9065ZM35.2766 10.4671C35.456 10.3912 35.6466 10.3231 35.8508 10.2663L36.2486 11.695C36.1099 11.7337 35.9795 11.7801 35.8548 11.8329L35.2766 10.4671ZM34.8512 10.6495C34.9819 10.5942 35.1219 10.5344 35.27 10.47L35.8615 11.83C35.708 11.8968 35.5633 11.9586 35.4291 12.0154L34.8512 10.6495ZM34.5415 10.7711C34.6253 10.7431 34.7247 10.7041 34.8461 10.6517L35.4342 12.0132C35.2904 12.0753 35.1492 12.1317 35.0117 12.1777L34.5415 10.7711ZM34.4786 10.7901C34.47 10.7901 34.4696 10.791 34.4792 10.7892C34.4889 10.7873 34.507 10.7829 34.5345 10.7734L35.0186 12.1753C34.8544 12.232 34.6721 12.2732 34.4786 12.2732V10.7901ZM34.5345 10.8134C34.5182 10.803 34.5019 10.7963 34.4886 10.7927C34.4759 10.7893 34.4715 10.7901 34.4786 10.7901V12.2732C34.2261 12.2732 33.9692 12.2119 33.7369 12.0638L34.5345 10.8134ZM34.4603 10.7198C34.4891 10.7613 34.5118 10.7881 34.5272 10.8041C34.5427 10.8202 34.5469 10.8214 34.5382 10.8158L33.7332 12.0614C33.528 11.9288 33.3681 11.7472 33.2421 11.5658L34.4603 10.7198ZM33.8305 9.81792L34.4592 10.7183L33.2432 11.5673L32.6145 10.667L33.8305 9.81792ZM34.6763 10.1151C34.2868 10.3337 33.973 10.5585 33.726 10.7869L32.7191 9.69797C33.068 9.37536 33.4813 9.08508 33.9503 8.82183L34.6763 10.1151ZM35.983 9.67596C35.4508 9.77183 35.0203 9.92269 34.6752 10.1157L33.9513 8.82126C34.4674 8.53259 35.0605 8.33517 35.72 8.21636L35.983 9.67596ZM36.4237 7.27296L36.5891 8.86978L35.1139 9.02254L34.9485 7.42572L36.4237 7.27296ZM36.6284 8.0909H35.6861V6.60779H36.6284V8.0909ZM36.5695 8.05338C36.5739 8.05791 36.5809 8.06412 36.5905 8.07052C36.6002 8.07695 36.6102 8.08207 36.6197 8.08575C36.6393 8.09345 36.6456 8.0909 36.6284 8.0909V6.60779C36.993 6.60779 37.3498 6.73087 37.6285 7.01508L36.5695 8.05338ZM36.5686 8.03212C36.569 8.0355 36.5698 8.04032 36.5715 8.04596C36.5731 8.05161 36.5751 8.05654 36.577 8.06036C36.5789 8.06413 36.58 8.06557 36.5794 8.06466C36.5787 8.06368 36.5758 8.05983 36.5694 8.05338L37.6285 7.01508C37.8533 7.24442 38.0054 7.53255 38.0427 7.8687L36.5686 8.03212ZM36.6589 8.9386L36.5678 8.02394L38.0436 7.87688L38.1347 8.79154L36.6589 8.9386ZM38.8116 9.86112C38.4222 9.69733 37.9551 9.60662 37.3968 9.60662V8.12352C38.1153 8.12352 38.7837 8.24042 39.3866 8.49402L38.8116 9.86112ZM39.8382 10.5141C39.5729 10.2596 39.2356 10.0394 38.8116 9.86112L39.3866 8.49402C39.955 8.73311 40.4517 9.04736 40.865 9.44396L39.8382 10.5141ZM40.4433 11.3723C40.3085 11.0613 40.1093 10.7752 39.8372 10.5132L40.866 9.44491C41.27 9.83401 41.5863 10.2802 41.8041 10.7824L40.4433 11.3723ZM40.6472 12.3296C40.6472 12.0072 40.581 11.6899 40.4433 11.3723L41.8041 10.7824C42.019 11.2781 42.1303 11.7956 42.1303 12.3296H40.6472ZM40.4335 13.4425C40.5615 13.1905 40.6472 12.8312 40.6472 12.3296H42.1303C42.1303 12.9895 42.019 13.5962 41.7556 14.1144L40.4335 13.4425ZM39.8697 14.1495C40.094 13.9713 40.2831 13.7402 40.4327 13.4441L41.7564 14.1129C41.5168 14.5871 41.1954 14.9905 40.7922 15.3108L39.8697 14.1495ZM39.0123 14.6298C39.3335 14.5092 39.6183 14.3485 39.8707 14.1487L40.7912 15.3116C40.4137 15.6103 39.9934 15.8456 39.5339 16.0182L39.0123 14.6298ZM37.8953 14.9904C38.271 14.8875 38.6435 14.768 39.0129 14.6296L39.5332 16.0184C39.1197 16.1734 38.7043 16.3066 38.2871 16.4209L37.8953 14.9904ZM37.6585 18.844L37.3533 15.7791L38.8291 15.6322L39.1343 18.6971L37.6585 18.844ZM39.3989 19.181C39.1492 19.3103 38.8769 19.4106 38.5858 19.4875L38.2069 18.0536C38.4122 17.9994 38.5799 17.935 38.7169 17.864L39.3989 19.181ZM39.9742 18.8613C39.7964 18.9688 39.6035 19.0762 39.3961 19.1825L38.7197 17.8626C38.8988 17.7708 39.061 17.6803 39.2067 17.5922L39.9742 18.8613ZM40.3704 18.6446C40.2523 18.7031 40.1182 18.776 39.9685 18.8647L39.2124 17.5888C39.3887 17.4843 39.5559 17.3929 39.7127 17.3153L40.3704 18.6446ZM40.4465 18.6202C40.4426 18.6202 40.4195 18.6203 40.3704 18.6446L39.7127 17.3153C39.9385 17.2036 40.1854 17.1371 40.4465 17.1371V18.6202ZM40.4454 18.6201C40.4429 18.6187 40.4431 18.6191 40.4454 18.6197C40.4478 18.6203 40.4486 18.6202 40.4465 18.6202V17.1371C40.699 17.1371 40.9432 17.2002 41.165 17.3232L40.4454 18.6201ZM40.4705 18.6342C40.4739 18.6388 40.4756 18.64 40.4734 18.6381C40.471 18.636 40.4635 18.63 40.4485 18.6218L41.1619 17.3215C41.3587 17.4295 41.5383 17.5775 41.6772 17.772L40.4705 18.6342ZM41.2617 19.7572L40.4677 18.6302L41.6801 17.776L42.4741 18.903L41.2617 19.7572ZM40.1073 19.5804C40.6227 19.3511 41.0393 19.082 41.3684 18.782L42.3674 19.8782C41.9036 20.3009 41.3475 20.6519 40.7102 20.9355L40.1073 19.5804ZM38.4761 20.065C39.0474 19.9725 39.5912 19.8106 40.1068 19.5807L40.7107 20.9352C40.0761 21.2182 39.4088 21.4164 38.7131 21.529L38.4761 20.065ZM38.022 22.5397L37.8567 20.8701L39.3325 20.7239L39.4979 22.3935L38.022 22.5397ZM37.8176 21.725H38.76V23.2081H37.8176V21.725ZM37.8717 21.76C37.8673 21.7556 37.8605 21.7497 37.8514 21.7437C37.8422 21.7377 37.8327 21.733 37.824 21.7296C37.8057 21.7225 37.8004 21.725 37.8176 21.725V23.2081C37.4541 23.2081 37.1001 23.0861 36.8225 22.8083L37.8717 21.76ZM37.8773 21.792C37.8768 21.7874 37.8757 21.7813 37.8737 21.7745C37.8716 21.7677 37.8692 21.7617 37.8668 21.757C37.8617 21.7469 37.8601 21.7484 37.8717 21.76L36.8225 22.8083C36.5963 22.5818 36.4415 22.2949 36.4035 21.9581L37.8773 21.792ZM37.7787 20.7887L37.8784 21.8024L36.4024 21.9477L36.3027 20.934L37.7787 20.7887ZM35.637 19.7819C36.0446 19.9612 36.5282 20.0795 37.0959 20.1218L36.9855 21.6008C36.2764 21.5479 35.6242 21.3966 35.0398 21.1394L35.637 19.7819ZM34.6098 19.0927C34.8785 19.3648 35.2168 19.596 35.6384 19.7825L35.0384 21.1388C34.4678 20.8864 33.9693 20.5547 33.5547 20.1351L34.6098 19.0927ZM38.2144 11.9675C38.2069 11.9486 38.1914 11.9207 38.1548 11.8856L39.1814 10.8152C39.3587 10.9853 39.5014 11.1887 39.5938 11.4226L38.2144 11.9675ZM38.2367 12.0969C38.2367 12.0445 38.2281 12.0027 38.2133 11.9646L39.5949 11.4254C39.6796 11.6426 39.7198 11.868 39.7198 12.0969H38.2367ZM38.1553 12.3354C38.199 12.2935 38.2367 12.2378 38.2367 12.0969H39.7198C39.7198 12.5928 39.5508 13.0524 39.1812 13.4065L38.1553 12.3354ZM37.5782 12.6809C37.8479 12.573 38.0329 12.4519 38.157 12.3338L39.1795 13.408C38.8902 13.6834 38.5328 13.8964 38.1289 14.0579L37.5782 12.6809ZM38.3446 10.8467L38.5914 13.295L37.1157 13.4438L36.869 10.9954L38.3446 10.8467ZM37.9588 11.7703C37.8606 11.729 37.7109 11.6868 37.4959 11.6543L37.7176 10.1878C38.0084 10.2318 38.2867 10.2992 38.534 10.4032L37.9588 11.7703ZM38.1551 11.8859C38.1305 11.8623 38.0729 11.819 37.9553 11.7688L38.5375 10.4047C38.7672 10.5028 38.9919 10.6336 39.1811 10.8149L38.1551 11.8859ZM36.0958 18.8945L35.8319 16.2196L37.3079 16.074L37.5717 18.7489L36.0958 18.8945ZM36.2123 17.3465C36.2123 17.6197 36.2837 17.7541 36.3562 17.8325C36.4375 17.9205 36.6063 18.0301 36.9594 18.0908L36.7081 19.5525C36.1528 19.457 35.6402 19.2429 35.267 18.8392C34.8851 18.4259 34.7292 17.9009 34.7292 17.3465H36.2123ZM36.2731 17.1564C36.2459 17.1813 36.2123 17.218 36.2123 17.3465H34.7292C34.7292 16.8595 34.8975 16.405 35.2715 16.0626L36.2731 17.1564ZM36.8324 16.8403C36.5632 16.9422 36.386 17.053 36.273 17.1564L35.2715 16.0626C35.5597 15.7987 35.9152 15.6017 36.3074 15.4533L36.8324 16.8403Z"
    fill="url(#paint6_linear_18_50)" mask="url(#path-3-inside-1_18_50)" />
  <defs>
    <linearGradient id="paint0_linear_18_50" x1="8.3683" y1="13.9271" x2="24.3292" y2="40.9499"
      gradientUnits="userSpaceOnUse">
      <stop stop-color="#11E7ED" />
      <stop offset="1" stop-color="#11E7ED" stop-opacity="0" />
    </linearGradient>
    <linearGradient id="paint1_linear_18_50" x1="8.3683" y1="13.9271" x2="24.3292" y2="40.9499"
      gradientUnits="userSpaceOnUse">
      <stop stop-color="white" />
      <stop offset="1" stop-color="white" stop-opacity="0" />
    </linearGradient>
    <linearGradient id="paint2_linear_18_50" x1="8.3683" y1="13.9271" x2="24.3292" y2="40.9499"
      gradientUnits="userSpaceOnUse">
      <stop stop-color="white" />
      <stop offset="1" stop-color="white" stop-opacity="0" />
    </linearGradient>
    <linearGradient id="paint3_linear_18_50" x1="41.3329" y1="37.0113" x2="27.1242" y2="62.104"
      gradientUnits="userSpaceOnUse">
      <stop stop-color="#11E7ED" />
      <stop offset="1" stop-color="#11E7ED" stop-opacity="0" />
    </linearGradient>
    <linearGradient id="paint4_linear_18_50" x1="41.3329" y1="37.0113" x2="27.1242" y2="62.104"
      gradientUnits="userSpaceOnUse">
      <stop stop-color="white" />
      <stop offset="1" stop-color="white" stop-opacity="0" />
    </linearGradient>
    <linearGradient id="paint5_linear_18_50" x1="37.3532" y1="0.54248" x2="43.8268" y2="25.8361"
      gradientUnits="userSpaceOnUse">
      <stop stop-color="#11E7ED" />
      <stop offset="1" stop-color="#11E7ED" stop-opacity="0" />
    </linearGradient>
    <linearGradient id="paint6_linear_18_50" x1="37.3532" y1="0.54248" x2="37.3532" y2="27.9167"
      gradientUnits="userSpaceOnUse">
      <stop stop-color="white" />
      <stop offset="1" stop-color="white" stop-opacity="0" />
    </linearGradient>
  </defs>
</svg>
