<svg width="50" height="60" viewBox="0 0 50 60" fill="none" xmlns="http://www.w3.org/2000/svg">
  <path
    d="M2.17258 13.8228H30.7383C31.9057 13.8228 32.853 14.7518 32.853 15.8968V35.4545C32.853 36.5995 31.9057 37.5301 30.7383 37.5301H2.17258C1.00201 37.5301 0.0563011 36.5995 0.0563011 35.4545V15.8968C0.0563011 14.7518 1.00201 13.8228 2.17258 13.8228ZM28.9299 18.5448H20.9878V22.6334H28.9299V18.5448ZM25.1853 32.4436H28.9315V30.8795H25.1853V32.4436ZM18.1172 32.4436H21.8618V30.8795H18.1172V32.4436ZM11.046 32.4436H14.7921V30.8795H11.046V32.4436ZM3.97947 32.4436H7.72402V30.8795H3.97947V32.4436Z"
    fill="url(#paint0_linear_7397_1003)" />
  <path
    d="M42.1779 54.9127C43.9948 54.9127 45.4616 53.4687 45.4616 51.6935V48.5931H5.95237V51.6935C5.95237 53.4685 7.42212 54.9127 9.23922 54.9127H42.1779ZM24.1632 51.3619C24.1632 50.5234 24.8591 49.845 25.707 49.845C26.5581 49.845 27.2507 50.5219 27.2507 51.3619C27.2507 52.2036 26.558 52.8788 25.707 52.8788C24.8593 52.8788 24.1632 52.2038 24.1632 51.3619Z"
    fill="url(#paint1_linear_7397_1003)" stroke="url(#paint2_linear_7397_1003)"
    stroke-width="0.296621" />
  <path
    d="M42.1784 0.466182H9.23973C7.75301 0.466182 6.50831 1.43433 6.10123 2.75662H45.3135C44.9051 1.43412 43.6618 0.466182 42.1784 0.466182Z"
    fill="url(#paint3_linear_7397_1003)" stroke="url(#paint4_linear_7397_1003)"
    stroke-width="0.296621" />
  <path
    d="M34.5931 15.8927V35.4504C34.5931 37.5418 32.859 39.2385 30.7353 39.2385H5.95077V46.7312H45.4616V4.61511H5.95077V12.1062H30.7353C32.859 12.1062 34.5931 13.8029 34.5931 15.8927Z"
    fill="url(#paint5_linear_7397_1003)" />
  <path
    d="M34.5931 15.8927V35.4504C34.5931 37.5418 32.859 39.2385 30.7353 39.2385H5.95077V46.7312H45.4616V4.61511H5.95077V12.1062H30.7353C32.859 12.1062 34.5931 13.8029 34.5931 15.8927Z"
    fill="url(#paint6_linear_7397_1003)" />
  <path
    d="M34.5931 15.8927V35.4504C34.5931 37.5418 32.859 39.2385 30.7353 39.2385H5.95077V46.7312H45.4616V4.61511H5.95077V12.1062H30.7353C32.859 12.1062 34.5931 13.8029 34.5931 15.8927Z"
    stroke="url(#paint7_linear_7397_1003)" stroke-width="0.296621" />
  <defs>
    <linearGradient id="paint0_linear_7397_1003" x1="16.4547" y1="13.8228" x2="16.4547" y2="35.9656"
      gradientUnits="userSpaceOnUse">
      <stop stop-color="white" />
      <stop offset="1" stop-color="white" stop-opacity="0" />
    </linearGradient>
    <linearGradient id="paint1_linear_7397_1003" x1="25.707" y1="48.4448" x2="25.707" y2="54.6244"
      gradientUnits="userSpaceOnUse">
      <stop stop-color="#11E7ED" />
      <stop offset="1" stop-color="#11E7ED" stop-opacity="0" />
    </linearGradient>
    <linearGradient id="paint2_linear_7397_1003" x1="25.707" y1="48.4448" x2="25.707" y2="54.6244"
      gradientUnits="userSpaceOnUse">
      <stop stop-color="white" />
      <stop offset="1" stop-color="white" stop-opacity="0" />
    </linearGradient>
    <linearGradient id="paint3_linear_7397_1003" x1="25.7075" y1="0.317871" x2="25.7075" y2="2.7342"
      gradientUnits="userSpaceOnUse">
      <stop stop-color="#11E7ED" />
      <stop offset="1" stop-color="#11E7ED" stop-opacity="0" />
    </linearGradient>
    <linearGradient id="paint4_linear_7397_1003" x1="25.7075" y1="0.317871" x2="25.7075" y2="2.7342"
      gradientUnits="userSpaceOnUse">
      <stop stop-color="white" />
      <stop offset="1" stop-color="white" stop-opacity="0" />
    </linearGradient>
    <linearGradient id="paint5_linear_7397_1003" x1="25.7062" y1="4.4668" x2="25.7062" y2="44.0805"
      gradientUnits="userSpaceOnUse">
      <stop stop-color="#11E7ED" />
      <stop offset="1" stop-color="#11E7ED" stop-opacity="0" />
    </linearGradient>
    <linearGradient id="paint6_linear_7397_1003" x1="25.7062" y1="4.4668" x2="25.7062" y2="44.0805"
      gradientUnits="userSpaceOnUse">
      <stop stop-color="white" />
      <stop offset="1" stop-color="white" stop-opacity="0" />
    </linearGradient>
    <linearGradient id="paint7_linear_7397_1003" x1="25.7062" y1="4.4668" x2="25.7062" y2="44.0805"
      gradientUnits="userSpaceOnUse">
      <stop stop-color="white" />
      <stop offset="1" stop-color="white" stop-opacity="0" />
    </linearGradient>
  </defs>
</svg>
