<svg width="68" height="67" viewBox="0 0 68 67" fill="none" xmlns="http://www.w3.org/2000/svg">
  <path
    d="M55.6117 46.473H11.4628H55.6117ZM55.6091 21.7286H11.4602H55.6091ZM33.5346 9.35645V58.8452V9.35645ZM58.7615 34.1008H8.30519H58.7615ZM8.30519 34.1008C8.30519 47.7664 19.6012 58.8452 33.5346 58.8452C47.4681 58.8452 58.7615 47.7664 58.7615 34.1008C58.7615 20.4352 47.4655 9.35645 33.5346 9.35645C19.6012 9.35645 8.30519 20.4352 8.30519 34.1008Z"
    fill="url(#paint0_linear_7397_987)" />
  <path
    d="M55.6117 46.473H11.4628M55.6091 21.7286H11.4602M33.5346 9.35645V58.8452M33.5346 9.35645C47.4655 9.35645 58.7615 20.4352 58.7615 34.1008M33.5346 9.35645C19.6012 9.35645 8.30519 20.4352 8.30519 34.1008M33.5346 58.8452C19.6012 58.8452 8.30519 47.7664 8.30519 34.1008M33.5346 58.8452C47.4681 58.8452 58.7615 47.7664 58.7615 34.1008M58.7615 34.1008H8.30519"
    stroke="url(#paint1_linear_7397_987)" stroke-width="0.741553" />
  <path
    d="M42.2149 11.0615C48.6247 26.5358 49.6597 40.9614 42.7192 56.9226M25.0502 11.0615C18.6404 26.5358 17.6054 40.9614 24.5458 56.9226"
    stroke="url(#paint2_linear_7397_987)" stroke-width="0.741553" />
  <path
    d="M56.1677 61.1831V56.4991H51.3866M5.58535 18.4937C1.68999 25.1101 0.380295 32.8896 1.90029 40.3829C3.42029 47.8761 7.66631 54.5718 13.8472 59.2224C20.0277 63.8729 27.7215 66.1613 35.4949 65.6612C43.2683 65.1611 50.5913 61.9067 56.0994 56.5042"
    stroke="url(#paint3_linear_7397_987)" stroke-width="0.741553" stroke-linecap="round"
    stroke-linejoin="round" />
  <path
    d="M9.49924 9.30338L9.83726 13.9756L14.6064 13.6438M63.0354 48.3746C66.4435 41.5044 67.1885 33.6534 65.1316 26.2845C63.0747 18.9156 58.3561 12.5314 51.8551 8.32149C45.3545 4.11166 37.5149 2.36306 29.7971 3.40147C22.0792 4.43989 15.0094 8.1945 9.90501 13.9658"
    stroke="url(#paint4_linear_7397_987)" stroke-width="0.741553" stroke-linecap="round"
    stroke-linejoin="round" />
  <defs>
    <linearGradient id="paint0_linear_7397_987" x1="33.5333" y1="9.35645" x2="33.5333" y2="55.5792"
      gradientUnits="userSpaceOnUse">
      <stop stop-color="#11E7ED" />
      <stop offset="1" stop-color="#11E7ED" stop-opacity="0" />
    </linearGradient>
    <linearGradient id="paint1_linear_7397_987" x1="33.5333" y1="9.35645" x2="33.5333" y2="58.8452"
      gradientUnits="userSpaceOnUse">
      <stop stop-color="white" />
      <stop offset="1" stop-color="white" stop-opacity="0" />
    </linearGradient>
    <linearGradient id="paint2_linear_7397_987" x1="33.6325" y1="11.0615" x2="33.6325" y2="56.9226"
      gradientUnits="userSpaceOnUse">
      <stop stop-color="white" />
      <stop offset="1" stop-color="white" stop-opacity="0" />
    </linearGradient>
    <linearGradient id="paint3_linear_7397_987" x1="52.7298" y1="54.7783" x2="-3.45847" y2="26.4287"
      gradientUnits="userSpaceOnUse">
      <stop stop-color="#11E7ED" />
      <stop offset="1" stop-color="#11E7ED" stop-opacity="0" />
    </linearGradient>
    <linearGradient id="paint4_linear_7397_987" x1="13.3907" y1="15.4535" x2="71.5272" y2="39.7279"
      gradientUnits="userSpaceOnUse">
      <stop stop-color="#11E7ED" />
      <stop offset="1" stop-color="#11E7ED" stop-opacity="0" />
    </linearGradient>
  </defs>
</svg>
