<svg width="69" height="68" viewBox="0 0 69 68" fill="none" xmlns="http://www.w3.org/2000/svg">
<path d="M42.6895 49.004C48.4674 43.4083 51.7793 35.6369 51.7793 27.6789V18.7688C44.933 17.877 39.0151 14.9933 34.1476 10.1777C29.2769 14.9942 23.3561 17.879 16.5057 18.7697V27.6788C16.5057 35.6367 19.8175 43.4072 25.5915 48.9989L34.1486 57.2877L42.6895 49.004Z" fill="url(#paint0_linear_7397_967)"/>
<path d="M9.29695 27.5288C9.43237 27.5287 9.56647 27.5548 9.6916 27.6056C9.81672 27.6564 9.93041 27.7309 10.0262 27.8248C10.1219 27.9187 10.1979 28.0302 10.2497 28.1529C10.3014 28.2757 10.3281 28.4072 10.328 28.54C10.328 28.6852 10.3371 28.8294 10.3461 29.0101C10.3774 29.5681 9.9414 30.0313 9.37245 30.0608C8.79469 30.0907 8.31685 29.6436 8.2859 29.092C8.27483 28.9024 8.26575 28.7207 8.26575 28.5399C8.2657 28.4071 8.29234 28.2755 8.34415 28.1528C8.39595 28.0301 8.47192 27.9186 8.56768 27.8247C8.66345 27.7308 8.77715 27.6563 8.90229 27.6056C9.02742 27.5548 9.16153 27.5287 9.29695 27.5288Z" fill="url(#paint1_linear_7397_967)"/>
<path d="M8.25468 17.2745C8.25468 13.9236 10.8436 11.1692 14.2803 10.866C20.2142 10.3564 25.249 7.87261 29.2427 3.48372C31.8748 0.589101 36.4605 0.636071 39.0604 3.49353C43.047 7.87562 48.0747 10.3564 54.0058 10.866C57.4384 11.1692 60.0273 13.9236 60.0273 17.2745V27.6798C60.0273 37.7789 55.8233 47.6469 48.4927 54.7536L38.7686 64.1901C36.2198 66.6542 32.0748 66.6586 29.5357 64.1901L19.7904 54.7536C13.9128 49.0513 10.1035 41.8231 8.77334 33.8502C8.6817 33.2992 9.06336 32.7797 9.62524 32.6888C10.1891 32.598 10.7167 32.9732 10.8094 33.5243C12.0681 41.0725 15.6751 47.9165 21.2395 53.3147L30.9858 62.7522C32.7259 64.443 35.5695 64.4439 37.3196 62.7511L47.0428 53.3156C53.9836 46.5863 57.9651 37.2416 57.9651 27.6799V17.2746C57.9651 14.9784 56.1838 13.0892 53.8235 12.8808C47.3538 12.3247 41.87 9.61967 37.5219 4.84075C35.7085 2.84812 32.5728 2.86107 30.7813 4.83094C26.4262 9.61679 20.9354 12.3257 14.4626 12.8808C12.0993 13.0892 10.3171 14.9784 10.3171 17.2746V23.9182C10.3171 24.051 10.2905 24.1826 10.2387 24.3053C10.1869 24.428 10.111 24.5395 10.0152 24.6334C9.91947 24.7273 9.80578 24.8018 9.68066 24.8526C9.55553 24.9034 9.42142 24.9295 9.286 24.9294C9.15059 24.9295 9.01648 24.9034 8.89135 24.8526C8.76623 24.8018 8.65254 24.7273 8.55678 24.6334C8.46103 24.5395 8.38508 24.428 8.33329 24.3053C8.28149 24.1826 8.25488 24.051 8.25495 23.9182L8.25468 17.2745Z" fill="url(#paint2_linear_7397_967)"/>
<path d="M33.4195 9.45734C33.8063 9.07412 34.497 9.07412 34.8836 9.45734C39.5811 14.1049 45.3126 16.8978 51.9193 17.7581C52.167 17.7905 52.3943 17.9099 52.559 18.0943C52.7236 18.2787 52.8144 18.5155 52.8145 18.7606V27.6706C52.8145 35.8973 49.3898 43.9324 43.4186 49.7146L34.8776 57.9985C34.6846 58.1856 34.4242 58.2906 34.1528 58.2908C33.8814 58.291 33.6209 58.1864 33.4276 57.9996L24.8715 49.7107C18.9023 43.9293 15.4786 35.8963 15.4786 27.6706V18.7616C15.4783 18.5164 15.569 18.2795 15.7337 18.0951C15.8984 17.9106 16.1259 17.7912 16.3737 17.7591C22.9835 16.8998 28.7181 14.1059 33.4195 9.45734ZM17.5408 27.6705C17.5408 35.3589 20.741 42.8676 26.3205 48.2707L34.1526 55.8574L41.9686 48.2766L41.9696 48.2756C47.5511 42.8705 50.7523 35.3599 50.7523 27.6705V19.6344C44.3954 18.6369 38.819 15.9329 34.1517 11.5846C29.4803 15.9349 23.8998 18.6399 17.541 19.6355V27.6705H17.5408Z" fill="white"/>
<path d="M33.4195 9.45734C33.8063 9.07412 34.497 9.07412 34.8836 9.45734C39.5811 14.1049 45.3126 16.8978 51.9193 17.7581C52.167 17.7905 52.3943 17.9099 52.559 18.0943C52.7236 18.2787 52.8144 18.5155 52.8145 18.7606V27.6706C52.8145 35.8973 49.3898 43.9324 43.4186 49.7146L34.8776 57.9985C34.6846 58.1856 34.4242 58.2906 34.1528 58.2908C33.8814 58.291 33.6209 58.1864 33.4276 57.9996L24.8715 49.7107C18.9023 43.9293 15.4786 35.8963 15.4786 27.6706V18.7616C15.4783 18.5164 15.569 18.2795 15.7337 18.0951C15.8984 17.9106 16.1259 17.7912 16.3737 17.7591C22.9835 16.8998 28.7181 14.1059 33.4195 9.45734ZM17.5408 27.6705C17.5408 35.3589 20.741 42.8676 26.3205 48.2707L34.1526 55.8574L41.9686 48.2766L41.9696 48.2756C47.5511 42.8705 50.7523 35.3599 50.7523 27.6705V19.6344C44.3954 18.6369 38.819 15.9329 34.1517 11.5846C29.4803 15.9349 23.8998 18.6399 17.541 19.6355V27.6705H17.5408Z" fill="url(#paint3_linear_7397_967)"/>
<path d="M33.4195 9.45734C33.8063 9.07412 34.497 9.07412 34.8836 9.45734C39.5811 14.1049 45.3126 16.8978 51.9193 17.7581C52.167 17.7905 52.3943 17.9099 52.559 18.0943C52.7236 18.2787 52.8144 18.5155 52.8145 18.7606V27.6706C52.8145 35.8973 49.3898 43.9324 43.4186 49.7146L34.8776 57.9985C34.6846 58.1856 34.4242 58.2906 34.1528 58.2908C33.8814 58.291 33.6209 58.1864 33.4276 57.9996L24.8715 49.7107C18.9023 43.9293 15.4786 35.8963 15.4786 27.6706V18.7616C15.4783 18.5164 15.569 18.2795 15.7337 18.0951C15.8984 17.9106 16.1259 17.7912 16.3737 17.7591C22.9835 16.8998 28.7181 14.1059 33.4195 9.45734ZM17.5408 27.6705C17.5408 35.3589 20.741 42.8676 26.3205 48.2707L34.1526 55.8574L41.9686 48.2766L41.9696 48.2756C47.5511 42.8705 50.7523 35.3599 50.7523 27.6705V19.6344C44.3954 18.6369 38.819 15.9329 34.1517 11.5846C29.4803 15.9349 23.8998 18.6399 17.541 19.6355V27.6705H17.5408Z" fill="url(#paint4_linear_7397_967)"/>
<path d="M39.1309 31.2964C39.1309 33.6476 37.43 35.6143 35.1726 36.0819V39.9407C35.1726 40.4996 34.7114 40.9519 34.1415 40.9519C33.5716 40.9519 33.1105 40.4996 33.1105 39.9407V36.0819C30.8529 35.6143 29.1522 33.6475 29.1522 31.2964C29.1522 28.5983 31.3907 26.4028 34.1417 26.4028C36.8927 26.4028 39.1309 28.5983 39.1309 31.2964ZM34.1414 28.4256C32.5272 28.4256 31.2142 29.7134 31.2142 31.2965C31.2142 32.8796 32.5272 34.1674 34.1414 34.1674C35.7555 34.1674 37.0686 32.8796 37.0686 31.2965C37.0686 29.7134 35.7555 28.4256 34.1414 28.4256Z" fill="white"/>
<path d="M39.1309 31.2964C39.1309 33.6476 37.43 35.6143 35.1726 36.0819V39.9407C35.1726 40.4996 34.7114 40.9519 34.1415 40.9519C33.5716 40.9519 33.1105 40.4996 33.1105 39.9407V36.0819C30.8529 35.6143 29.1522 33.6475 29.1522 31.2964C29.1522 28.5983 31.3907 26.4028 34.1417 26.4028C36.8927 26.4028 39.1309 28.5983 39.1309 31.2964ZM34.1414 28.4256C32.5272 28.4256 31.2142 29.7134 31.2142 31.2965C31.2142 32.8796 32.5272 34.1674 34.1414 34.1674C35.7555 34.1674 37.0686 32.8796 37.0686 31.2965C37.0686 29.7134 35.7555 28.4256 34.1414 28.4256Z" fill="url(#paint5_linear_7397_967)"/>
<defs>
<linearGradient id="paint0_linear_7397_967" x1="34.1425" y1="10.1777" x2="34.1425" y2="54.1788" gradientUnits="userSpaceOnUse">
<stop stop-color="white"/>
<stop offset="1" stop-color="white" stop-opacity="0"/>
</linearGradient>
<linearGradient id="paint1_linear_7397_967" x1="34.141" y1="1.33154" x2="34.141" y2="66.0398" gradientUnits="userSpaceOnUse">
<stop stop-color="#30E0E5"/>
<stop offset="1" stop-color="#30E0E5" stop-opacity="0"/>
</linearGradient>
<linearGradient id="paint2_linear_7397_967" x1="34.141" y1="1.33154" x2="34.141" y2="66.0398" gradientUnits="userSpaceOnUse">
<stop stop-color="#30E0E5"/>
<stop offset="1" stop-color="#30E0E5" stop-opacity="0"/>
</linearGradient>
<linearGradient id="paint3_linear_7397_967" x1="34.1465" y1="9.16992" x2="34.1465" y2="55.0491" gradientUnits="userSpaceOnUse">
<stop stop-color="white"/>
<stop offset="1" stop-color="white" stop-opacity="0"/>
</linearGradient>
<linearGradient id="paint4_linear_7397_967" x1="34.1465" y1="9.16992" x2="34.1465" y2="58.2908" gradientUnits="userSpaceOnUse">
<stop stop-color="#30E0E5"/>
<stop offset="1" stop-color="#30E0E5" stop-opacity="0"/>
</linearGradient>
<linearGradient id="paint5_linear_7397_967" x1="34.1415" y1="26.4028" x2="34.1415" y2="40.9519" gradientUnits="userSpaceOnUse">
<stop stop-color="#30E0E5"/>
<stop offset="1" stop-color="#30E0E5" stop-opacity="0"/>
</linearGradient>
</defs>
</svg>
